<svg width="40" height="73" viewBox="0 0 40 73" fill="none" xmlns="http://www.w3.org/2000/svg">
<path d="M6.54856 48.1286L20.5917 13.0207C21.0164 11.959 22.6025 12.3262 22.5174 13.4665L20.5802 39.4256C20.5369 40.0056 20.9958 40.5 21.5774 40.5H37.7433C38.5185 40.5 38.9989 41.3439 38.6031 42.0105L24.7275 65.3801C24.124 66.3964 22.5668 65.7092 22.9109 64.5784L27.107 50.7912C27.3026 50.1487 26.8219 49.5 26.1504 49.5H7.47703C6.76957 49.5 6.28581 48.7855 6.54856 48.1286Z" fill="#0E6E45" stroke="black"/>
<path d="M0.548556 41.1286L14.5917 6.0207C15.0164 4.95901 16.6025 5.32621 16.5174 6.46651L14.5802 32.4256C14.5369 33.0056 14.9958 33.5 15.5774 33.5H31.7433C32.5185 33.5 32.9989 34.3439 32.6031 35.0105L18.7275 58.3801C18.124 59.3964 16.5668 58.7092 16.9109 57.5784L21.107 43.7912C21.3026 43.1487 20.8219 42.5 20.1504 42.5H1.47703C0.769568 42.5 0.28581 41.7855 0.548556 41.1286Z" fill="#4CFFA6"/>
</svg>
