<svg width="328" height="136" viewBox="0 0 328 136" fill="none" xmlns="http://www.w3.org/2000/svg">
<g clip-path="url(#clip0_424_1410)">
<path d="M98.8256 69.1549C99.1045 68.3995 99.3137 67.8823 99.4938 67.3594C104.41 53.1344 109.518 38.9791 115.532 25.1725C118.141 19.1815 120.884 13.2428 124.353 7.6876C125.404 6.00826 126.584 4.39284 127.845 2.87039C128.6 1.9639 129.559 1.16781 130.564 0.534424C132.058 -0.406936 133.598 -0.0989603 134.522 1.38862C135.254 2.56823 135.818 3.89891 136.201 5.23541C137.293 9.02991 137.596 12.9522 137.735 16.8688C138.124 27.7002 137.875 38.5317 137.084 49.3341C136.526 56.9986 135.719 64.6515 133.691 72.101C133.086 74.315 132.36 76.5115 131.442 78.6092C130.716 80.2653 129.757 81.8749 128.647 83.3044C126.108 86.5701 122.807 87.4707 118.867 86.233C116.589 85.5183 114.585 84.3038 112.684 82.9034C108.018 79.4692 104.119 75.2331 100.296 70.9272C99.947 70.5379 99.6042 70.1428 99.2497 69.7592C99.1858 69.6895 99.0696 69.6605 98.8604 69.5442C98.6454 70.1428 98.4188 70.718 98.227 71.3049C95.8562 78.3942 93.4854 85.4776 90.3824 92.2938C88.1684 97.1575 85.7685 101.928 82.3343 106.066C80.9107 107.78 79.2952 109.401 77.5345 110.767C73.5076 113.893 68.9984 114.468 64.2102 112.713C60.3634 111.307 57.1326 108.919 54.1051 106.228C49.2356 101.893 45.0692 96.9308 41.1179 91.7708C33.1221 81.3345 26.0561 70.2706 19.1935 59.0789C15.1491 52.4835 11.1919 45.8301 7.24633 39.1709C4.49779 34.528 2.06304 29.7282 0.767214 24.4403C0.13383 21.901 -0.238065 19.3326 0.174506 16.6886C0.819512 12.592 3.07994 9.84343 6.88024 8.30936C8.78621 7.54233 10.7793 7.15881 12.8306 7.06002C20.0767 6.69394 26.951 8.41977 33.616 11.0114C49.9387 17.3627 64.0882 26.8576 75.3264 40.4202C81.7358 48.1544 88.0057 55.9991 94.3512 63.7857C95.769 65.5231 97.2159 67.2315 98.8256 69.1607V69.1549Z" fill="white"/>
<path d="M319.533 91.1783C313.676 75.3321 307.807 59.4626 301.921 43.5409H168.236C174.122 59.4452 179.98 75.274 185.889 91.248H179.532C174.657 78.1097 169.764 64.9132 164.872 51.7226C164.767 51.7226 164.668 51.7226 164.564 51.7226C162.14 58.2423 159.723 64.7679 157.23 71.4795H170.398C171.037 73.4784 171.647 75.396 172.344 77.5867C169.288 77.6622 166.44 77.6099 163.593 77.6216C160.769 77.6274 157.945 77.6216 154.97 77.6216C153.279 82.125 151.594 86.6052 149.839 91.2771C147.875 91.4049 145.858 91.3062 143.842 91.3294C143.877 90.0742 161.147 43.0063 162.733 39.7638H306.843C313.147 56.8012 319.481 73.9201 325.867 91.1783H319.539H319.533Z" fill="white"/>
<path d="M255.533 45.7083H261.977C267.561 60.8107 273.151 75.9189 278.794 91.1608H272.495C266.661 76.1804 261.396 60.9095 255.533 45.7083Z" fill="white"/>
<path d="M230.319 91.1609H223.962C218.395 76.1049 212.805 60.9909 207.163 45.7432H213.514C219.081 60.7875 224.665 75.8899 230.314 91.1609H230.319Z" fill="white"/>
<path d="M306.279 84.3796H298.649V90.818H306.279V84.3796Z" fill="white"/>
<path d="M169.22 24.8774C169.15 24.2919 168.869 23.8374 168.376 23.5139C167.883 23.1903 167.278 23.0285 166.562 23.0285C166.038 23.0285 165.579 23.1133 165.187 23.2827C164.798 23.4522 164.493 23.6853 164.274 23.9819C164.058 24.2785 163.95 24.6155 163.95 24.993C163.95 25.3088 164.025 25.5804 164.175 25.8077C164.33 26.0311 164.526 26.2179 164.765 26.3681C165.004 26.5145 165.254 26.6358 165.516 26.7321C165.778 26.8246 166.019 26.8997 166.238 26.9574L167.44 27.281C167.748 27.3619 168.091 27.4736 168.468 27.6161C168.85 27.7586 169.214 27.9532 169.56 28.1997C169.911 28.4424 170.2 28.7544 170.427 29.1357C170.654 29.517 170.768 29.985 170.768 30.5397C170.768 31.1791 170.6 31.7569 170.265 32.2731C169.934 32.7892 169.449 33.1994 168.809 33.5037C168.174 33.808 167.401 33.9602 166.492 33.9602C165.645 33.9602 164.911 33.8235 164.291 33.55C163.675 33.2765 163.189 32.8951 162.835 32.406C162.484 31.9168 162.286 31.3486 162.24 30.7015H163.719C163.758 31.1483 163.908 31.5181 164.17 31.8108C164.435 32.0997 164.771 32.3154 165.175 32.458C165.583 32.5966 166.022 32.666 166.492 32.666C167.039 32.666 167.53 32.5774 167.966 32.4002C168.401 32.2191 168.746 31.9688 169 31.6491C169.254 31.3255 169.381 30.948 169.381 30.5166C169.381 30.1237 169.272 29.804 169.052 29.5575C168.832 29.311 168.544 29.1107 168.185 28.9566C167.827 28.8025 167.44 28.6677 167.024 28.5521L165.568 28.1361C164.643 27.8703 163.912 27.4909 163.372 26.9979C162.833 26.5049 162.563 25.8597 162.563 25.0623C162.563 24.3998 162.743 23.822 163.101 23.329C163.463 22.8321 163.948 22.4469 164.557 22.1734C165.169 21.8961 165.853 21.7574 166.608 21.7574C167.371 21.7574 168.049 21.8941 168.642 22.1676C169.235 22.4372 169.705 22.807 170.052 23.277C170.402 23.7469 170.587 24.2804 170.606 24.8774H169.22ZM173.124 21.9192H174.834L178.856 31.7415H178.994L183.016 21.9192H184.726V33.7522H183.385V24.7619H183.27L179.572 33.7522H178.278L174.58 24.7619H174.464V33.7522H173.124V21.9192ZM188.084 33.7522H186.582L190.927 21.9192H192.406L196.751 33.7522H195.249L191.713 23.7912H191.62L188.084 33.7522ZM188.639 29.1299H194.694V30.401H188.639V29.1299ZM198.594 33.7522V21.9192H202.592C203.517 21.9192 204.276 22.0771 204.869 22.393C205.462 22.705 205.901 23.1344 206.186 23.6814C206.471 24.2284 206.614 24.8505 206.614 25.5477C206.614 26.2448 206.471 26.8631 206.186 27.4023C205.901 27.9416 205.464 28.3653 204.875 28.6735C204.285 28.9778 203.532 29.1299 202.615 29.1299H199.38V27.8357H202.569C203.201 27.8357 203.709 27.7432 204.095 27.5583C204.484 27.3735 204.765 27.1115 204.938 26.7726C205.115 26.4297 205.204 26.0214 205.204 25.5477C205.204 25.0739 205.115 24.6598 204.938 24.3054C204.761 23.951 204.478 23.6776 204.089 23.485C203.7 23.2885 203.186 23.1903 202.546 23.1903H200.027V33.7522H198.594ZM204.164 28.4366L207.076 33.7522H205.412L202.546 28.4366H204.164ZM208.354 23.1903V21.9192H217.229V23.1903H213.508V33.7522H212.075V23.1903H208.354ZM223.133 27.2001V28.4712H217.956V27.2001H223.133Z" fill="white"/>
<path d="M95.8773 107.075V102.003H98.9379V102.548H96.4914V104.262H98.7794V104.806H96.4914V106.53H98.9775V107.075H95.8773ZM100.55 104.787V107.075H99.9655V103.271H100.53V103.866H100.58C100.669 103.672 100.804 103.517 100.986 103.4C101.167 103.281 101.402 103.222 101.689 103.222C101.947 103.222 102.172 103.275 102.365 103.38C102.558 103.484 102.708 103.643 102.816 103.856C102.923 104.067 102.977 104.334 102.977 104.658V107.075H102.392V104.698C102.392 104.399 102.315 104.166 102.159 103.999C102.004 103.831 101.791 103.747 101.521 103.747C101.334 103.747 101.167 103.787 101.02 103.868C100.875 103.949 100.76 104.067 100.676 104.222C100.592 104.377 100.55 104.565 100.55 104.787ZM105.639 107.154C105.273 107.154 104.957 107.073 104.691 106.911C104.427 106.748 104.223 106.52 104.079 106.228C103.937 105.934 103.866 105.592 103.866 105.203C103.866 104.813 103.937 104.47 104.079 104.173C104.223 103.874 104.423 103.641 104.678 103.474C104.936 103.306 105.236 103.222 105.58 103.222C105.778 103.222 105.973 103.255 106.167 103.321C106.36 103.387 106.536 103.494 106.694 103.643C106.853 103.79 106.979 103.984 107.073 104.227C107.167 104.47 107.214 104.769 107.214 105.123V105.371H104.282V104.866H106.62C106.62 104.651 106.577 104.46 106.491 104.291C106.407 104.123 106.286 103.99 106.129 103.893C105.974 103.795 105.791 103.747 105.58 103.747C105.347 103.747 105.146 103.804 104.976 103.92C104.807 104.034 104.678 104.182 104.587 104.366C104.496 104.549 104.451 104.745 104.451 104.955V105.292C104.451 105.579 104.5 105.823 104.599 106.022C104.7 106.22 104.839 106.371 105.018 106.475C105.196 106.578 105.403 106.629 105.639 106.629C105.793 106.629 105.931 106.608 106.055 106.565C106.181 106.52 106.289 106.454 106.38 106.367C106.47 106.277 106.541 106.167 106.59 106.035L107.155 106.193C107.095 106.385 106.995 106.553 106.855 106.698C106.715 106.842 106.541 106.954 106.335 107.035C106.129 107.114 105.897 107.154 105.639 107.154ZM108.103 107.075V103.271H108.668V103.846H108.707C108.777 103.658 108.902 103.505 109.084 103.388C109.265 103.27 109.47 103.212 109.698 103.212C109.741 103.212 109.794 103.213 109.859 103.214C109.923 103.216 109.972 103.218 110.005 103.222V103.816C109.985 103.811 109.94 103.804 109.869 103.794C109.799 103.782 109.726 103.776 109.648 103.776C109.463 103.776 109.298 103.815 109.153 103.893C109.009 103.969 108.895 104.074 108.811 104.21C108.729 104.343 108.687 104.496 108.687 104.668V107.075H108.103ZM112.117 108.58C111.835 108.58 111.592 108.544 111.389 108.471C111.186 108.4 111.017 108.306 110.881 108.189C110.748 108.073 110.641 107.95 110.562 107.818L111.027 107.491C111.08 107.56 111.147 107.639 111.228 107.728C111.309 107.819 111.419 107.898 111.56 107.964C111.702 108.031 111.887 108.065 112.117 108.065C112.424 108.065 112.677 107.991 112.877 107.842C113.077 107.694 113.177 107.461 113.177 107.144V106.371H113.127C113.084 106.441 113.023 106.527 112.944 106.629C112.866 106.73 112.754 106.82 112.607 106.899C112.462 106.976 112.266 107.015 112.018 107.015C111.711 107.015 111.435 106.943 111.191 106.797C110.948 106.652 110.756 106.441 110.614 106.163C110.474 105.886 110.403 105.549 110.403 105.153C110.403 104.764 110.472 104.424 110.609 104.135C110.746 103.845 110.937 103.62 111.181 103.462C111.425 103.302 111.708 103.222 112.028 103.222C112.275 103.222 112.472 103.263 112.617 103.346C112.764 103.426 112.876 103.519 112.954 103.623C113.033 103.725 113.094 103.809 113.137 103.875H113.197V103.271H113.761V107.184C113.761 107.511 113.687 107.776 113.538 107.981C113.391 108.187 113.193 108.338 112.944 108.434C112.696 108.532 112.421 108.58 112.117 108.58ZM112.097 106.49C112.332 106.49 112.53 106.437 112.691 106.329C112.853 106.222 112.976 106.068 113.06 105.866C113.145 105.665 113.187 105.424 113.187 105.143C113.187 104.869 113.145 104.627 113.063 104.418C112.98 104.208 112.858 104.044 112.696 103.925C112.535 103.806 112.335 103.747 112.097 103.747C111.85 103.747 111.643 103.809 111.478 103.935C111.315 104.06 111.192 104.229 111.109 104.44C111.028 104.651 110.988 104.886 110.988 105.143C110.988 105.407 111.029 105.641 111.112 105.844C111.196 106.045 111.32 106.204 111.483 106.319C111.648 106.433 111.853 106.49 112.097 106.49ZM115.207 108.501C115.108 108.501 115.02 108.493 114.942 108.476C114.865 108.461 114.811 108.447 114.781 108.432L114.93 107.917C115.072 107.953 115.197 107.966 115.306 107.956C115.415 107.946 115.512 107.898 115.596 107.81C115.682 107.724 115.76 107.585 115.831 107.392L115.94 107.095L114.534 103.271H115.168L116.218 106.302H116.257L117.307 103.271H117.941L116.327 107.629C116.254 107.826 116.164 107.988 116.057 108.117C115.949 108.248 115.825 108.344 115.683 108.407C115.542 108.47 115.384 108.501 115.207 108.501ZM120.753 102.003H121.486L123.209 106.213H123.269L124.992 102.003H125.725V107.075H125.151V103.222H125.101L123.516 107.075H122.962L121.377 103.222H121.327V107.075H120.753V102.003ZM128.422 107.154C128.079 107.154 127.778 107.072 127.518 106.909C127.261 106.745 127.06 106.517 126.914 106.223C126.771 105.929 126.699 105.586 126.699 105.193C126.699 104.797 126.771 104.451 126.914 104.155C127.06 103.86 127.261 103.63 127.518 103.467C127.778 103.303 128.079 103.222 128.422 103.222C128.766 103.222 129.066 103.303 129.324 103.467C129.583 103.63 129.784 103.86 129.928 104.155C130.073 104.451 130.146 104.797 130.146 105.193C130.146 105.586 130.073 105.929 129.928 106.223C129.784 106.517 129.583 106.745 129.324 106.909C129.066 107.072 128.766 107.154 128.422 107.154ZM128.422 106.629C128.683 106.629 128.898 106.562 129.066 106.428C129.234 106.295 129.359 106.119 129.44 105.901C129.521 105.683 129.561 105.447 129.561 105.193C129.561 104.939 129.521 104.702 129.44 104.482C129.359 104.263 129.234 104.085 129.066 103.95C128.898 103.814 128.683 103.747 128.422 103.747C128.161 103.747 127.947 103.814 127.778 103.95C127.61 104.085 127.485 104.263 127.405 104.482C127.324 104.702 127.283 104.939 127.283 105.193C127.283 105.447 127.324 105.683 127.405 105.901C127.485 106.119 127.61 106.295 127.778 106.428C127.947 106.562 128.161 106.629 128.422 106.629ZM131.622 104.787V107.075H131.038V103.271H131.602V103.866H131.652C131.741 103.672 131.876 103.517 132.058 103.4C132.24 103.281 132.474 103.222 132.761 103.222C133.019 103.222 133.244 103.275 133.437 103.38C133.63 103.484 133.781 103.643 133.888 103.856C133.995 104.067 134.049 104.334 134.049 104.658V107.075H133.464V104.698C133.464 104.399 133.387 104.166 133.232 103.999C133.077 103.831 132.864 103.747 132.593 103.747C132.406 103.747 132.24 103.787 132.093 103.868C131.947 103.949 131.833 104.067 131.748 104.222C131.664 104.377 131.622 104.565 131.622 104.787ZM135.117 107.075V103.271H135.701V107.075H135.117ZM135.414 102.637C135.3 102.637 135.202 102.599 135.119 102.521C135.038 102.443 134.998 102.35 134.998 102.241C134.998 102.132 135.038 102.039 135.119 101.961C135.202 101.884 135.3 101.845 135.414 101.845C135.528 101.845 135.625 101.884 135.706 101.961C135.789 102.039 135.83 102.132 135.83 102.241C135.83 102.35 135.789 102.443 135.706 102.521C135.625 102.599 135.528 102.637 135.414 102.637ZM138.426 103.271V103.766H136.454V103.271H138.426ZM137.029 102.36H137.613V105.985C137.613 106.15 137.637 106.274 137.685 106.357C137.735 106.437 137.797 106.492 137.873 106.52C137.951 106.546 138.033 106.56 138.119 106.56C138.183 106.56 138.236 106.556 138.277 106.55C138.318 106.541 138.351 106.535 138.376 106.53L138.495 107.055C138.455 107.07 138.4 107.085 138.329 107.099C138.258 107.116 138.168 107.124 138.059 107.124C137.894 107.124 137.732 107.089 137.574 107.018C137.417 106.947 137.286 106.839 137.182 106.693C137.08 106.548 137.029 106.365 137.029 106.144V102.36ZM140.809 107.154C140.466 107.154 140.164 107.072 139.905 106.909C139.648 106.745 139.446 106.517 139.301 106.223C139.157 105.929 139.085 105.586 139.085 105.193C139.085 104.797 139.157 104.451 139.301 104.155C139.446 103.86 139.648 103.63 139.905 103.467C140.164 103.303 140.466 103.222 140.809 103.222C141.152 103.222 141.453 103.303 141.71 103.467C141.969 103.63 142.171 103.86 142.314 104.155C142.46 104.451 142.532 104.797 142.532 105.193C142.532 105.586 142.46 105.929 142.314 106.223C142.171 106.517 141.969 106.745 141.71 106.909C141.453 107.072 141.152 107.154 140.809 107.154ZM140.809 106.629C141.07 106.629 141.284 106.562 141.453 106.428C141.621 106.295 141.746 106.119 141.827 105.901C141.908 105.683 141.948 105.447 141.948 105.193C141.948 104.939 141.908 104.702 141.827 104.482C141.746 104.263 141.621 104.085 141.453 103.95C141.284 103.814 141.07 103.747 140.809 103.747C140.548 103.747 140.333 103.814 140.165 103.95C139.997 104.085 139.872 104.263 139.791 104.482C139.71 104.702 139.67 104.939 139.67 105.193C139.67 105.447 139.71 105.683 139.791 105.901C139.872 106.119 139.997 106.295 140.165 106.428C140.333 106.562 140.548 106.629 140.809 106.629ZM143.424 107.075V103.271H143.989V103.846H144.029C144.098 103.658 144.223 103.505 144.405 103.388C144.587 103.27 144.791 103.212 145.019 103.212C145.062 103.212 145.116 103.213 145.18 103.214C145.244 103.216 145.293 103.218 145.326 103.222V103.816C145.306 103.811 145.261 103.804 145.19 103.794C145.121 103.782 145.047 103.776 144.97 103.776C144.785 103.776 144.62 103.815 144.474 103.893C144.331 103.969 144.217 104.074 144.133 104.21C144.05 104.343 144.009 104.496 144.009 104.668V107.075H143.424ZM146.019 107.075V103.271H146.603V107.075H146.019ZM146.316 102.637C146.202 102.637 146.104 102.599 146.021 102.521C145.94 102.443 145.9 102.35 145.9 102.241C145.9 102.132 145.94 102.039 146.021 101.961C146.104 101.884 146.202 101.845 146.316 101.845C146.43 101.845 146.527 101.884 146.608 101.961C146.691 102.039 146.732 102.132 146.732 102.241C146.732 102.35 146.691 102.443 146.608 102.521C146.527 102.599 146.43 102.637 146.316 102.637ZM148.258 104.787V107.075H147.674V103.271H148.238V103.866H148.288C148.377 103.672 148.512 103.517 148.694 103.4C148.875 103.281 149.11 103.222 149.397 103.222C149.655 103.222 149.88 103.275 150.073 103.38C150.266 103.484 150.416 103.643 150.524 103.856C150.631 104.067 150.685 104.334 150.685 104.658V107.075H150.1V104.698C150.1 104.399 150.023 104.166 149.868 103.999C149.712 103.831 149.499 103.747 149.229 103.747C149.042 103.747 148.875 103.787 148.728 103.868C148.583 103.949 148.468 104.067 148.384 104.222C148.3 104.377 148.258 104.565 148.258 104.787ZM153.288 108.58C153.006 108.58 152.763 108.544 152.56 108.471C152.357 108.4 152.188 108.306 152.052 108.189C151.918 108.073 151.812 107.95 151.733 107.818L152.198 107.491C152.251 107.56 152.318 107.639 152.399 107.728C152.48 107.819 152.59 107.898 152.731 107.964C152.873 108.031 153.058 108.065 153.288 108.065C153.595 108.065 153.848 107.991 154.048 107.842C154.248 107.694 154.348 107.461 154.348 107.144V106.371H154.298C154.255 106.441 154.194 106.527 154.115 106.629C154.037 106.73 153.925 106.82 153.778 106.899C153.633 106.976 153.436 107.015 153.189 107.015C152.882 107.015 152.606 106.943 152.362 106.797C152.119 106.652 151.927 106.441 151.785 106.163C151.644 105.886 151.574 105.549 151.574 105.153C151.574 104.764 151.643 104.424 151.78 104.135C151.917 103.845 152.108 103.62 152.352 103.462C152.596 103.302 152.878 103.222 153.199 103.222C153.446 103.222 153.643 103.263 153.788 103.346C153.935 103.426 154.047 103.519 154.125 103.623C154.204 103.725 154.265 103.809 154.308 103.875H154.367V103.271H154.932V107.184C154.932 107.511 154.858 107.776 154.709 107.981C154.562 108.187 154.364 108.338 154.115 108.434C153.867 108.532 153.592 108.58 153.288 108.58ZM153.268 106.49C153.502 106.49 153.701 106.437 153.862 106.329C154.024 106.222 154.147 106.068 154.231 105.866C154.315 105.665 154.358 105.424 154.358 105.143C154.358 104.869 154.316 104.627 154.234 104.418C154.151 104.208 154.029 104.044 153.867 103.925C153.705 103.806 153.506 103.747 153.268 103.747C153.02 103.747 152.814 103.809 152.649 103.935C152.486 104.06 152.363 104.229 152.28 104.44C152.199 104.651 152.159 104.886 152.159 105.143C152.159 105.407 152.2 105.641 152.282 105.844C152.367 106.045 152.49 106.204 152.654 106.319C152.819 106.433 153.024 106.49 153.268 106.49ZM160.816 103.271C160.786 103.02 160.665 102.826 160.454 102.687C160.243 102.548 159.984 102.479 159.676 102.479C159.452 102.479 159.256 102.515 159.087 102.588C158.92 102.66 158.79 102.76 158.696 102.887C158.603 103.015 158.557 103.159 158.557 103.321C158.557 103.456 158.589 103.573 158.654 103.67C158.72 103.766 158.804 103.846 158.906 103.91C159.009 103.973 159.116 104.025 159.228 104.066C159.341 104.106 159.444 104.138 159.538 104.163L160.053 104.301C160.185 104.336 160.332 104.384 160.494 104.445C160.657 104.506 160.813 104.589 160.962 104.695C161.112 104.799 161.236 104.933 161.333 105.096C161.43 105.26 161.479 105.46 161.479 105.698C161.479 105.972 161.407 106.22 161.264 106.441C161.122 106.662 160.914 106.838 160.64 106.968C160.367 107.099 160.036 107.164 159.647 107.164C159.284 107.164 158.969 107.105 158.703 106.988C158.439 106.871 158.231 106.707 158.079 106.498C157.929 106.288 157.844 106.045 157.824 105.767H158.458C158.475 105.959 158.539 106.117 158.651 106.243C158.765 106.367 158.909 106.459 159.082 106.52C159.257 106.579 159.445 106.609 159.647 106.609C159.881 106.609 160.092 106.571 160.278 106.495C160.465 106.418 160.612 106.31 160.721 106.173C160.83 106.035 160.885 105.873 160.885 105.688C160.885 105.52 160.838 105.383 160.744 105.277C160.65 105.171 160.526 105.085 160.372 105.019C160.219 104.953 160.053 104.896 159.875 104.846L159.251 104.668C158.854 104.554 158.541 104.391 158.31 104.18C158.078 103.969 157.963 103.692 157.963 103.35C157.963 103.067 158.04 102.819 158.193 102.608C158.348 102.395 158.556 102.23 158.817 102.112C159.08 101.994 159.373 101.934 159.696 101.934C160.023 101.934 160.314 101.993 160.568 102.11C160.822 102.225 161.024 102.384 161.172 102.585C161.322 102.787 161.402 103.015 161.41 103.271H160.816ZM162.786 108.501C162.687 108.501 162.599 108.493 162.521 108.476C162.443 108.461 162.39 108.447 162.36 108.432L162.509 107.917C162.651 107.953 162.776 107.966 162.885 107.956C162.994 107.946 163.091 107.898 163.175 107.81C163.261 107.724 163.339 107.585 163.41 107.392L163.519 107.095L162.112 103.271H162.746L163.796 106.302H163.836L164.886 103.271H165.52L163.905 107.629C163.833 107.826 163.743 107.988 163.635 108.117C163.528 108.248 163.403 108.344 163.261 108.407C163.121 108.47 162.963 108.501 162.786 108.501ZM168.985 104.123L168.46 104.272C168.427 104.184 168.379 104.099 168.314 104.017C168.251 103.932 168.166 103.863 168.057 103.809C167.948 103.754 167.808 103.727 167.638 103.727C167.405 103.727 167.211 103.781 167.056 103.888C166.903 103.993 166.826 104.128 166.826 104.291C166.826 104.437 166.879 104.551 166.984 104.636C167.09 104.72 167.255 104.79 167.48 104.846L168.044 104.985C168.384 105.067 168.638 105.194 168.804 105.364C168.971 105.532 169.055 105.749 169.055 106.015C169.055 106.233 168.992 106.428 168.866 106.599C168.743 106.771 168.569 106.906 168.346 107.005C168.123 107.104 167.864 107.154 167.569 107.154C167.181 107.154 166.86 107.07 166.606 106.901C166.351 106.733 166.19 106.487 166.123 106.163L166.677 106.025C166.73 106.229 166.83 106.383 166.977 106.485C167.126 106.588 167.32 106.639 167.559 106.639C167.831 106.639 168.048 106.581 168.208 106.466C168.369 106.348 168.45 106.208 168.45 106.045C168.45 105.913 168.404 105.802 168.312 105.713C168.219 105.622 168.077 105.554 167.886 105.51L167.252 105.361C166.904 105.279 166.648 105.151 166.484 104.977C166.322 104.802 166.242 104.584 166.242 104.321C166.242 104.107 166.302 103.917 166.422 103.752C166.544 103.587 166.71 103.457 166.92 103.363C167.131 103.269 167.371 103.222 167.638 103.222C168.015 103.222 168.31 103.304 168.525 103.469C168.741 103.634 168.894 103.852 168.985 104.123ZM171.588 103.271V103.766H169.617V103.271H171.588ZM170.192 102.36H170.776V105.985C170.776 106.15 170.8 106.274 170.848 106.357C170.897 106.437 170.96 106.492 171.036 106.52C171.114 106.546 171.195 106.56 171.281 106.56C171.346 106.56 171.398 106.556 171.44 106.55C171.481 106.541 171.514 106.535 171.539 106.53L171.658 107.055C171.618 107.07 171.563 107.085 171.492 107.099C171.421 107.116 171.331 107.124 171.222 107.124C171.057 107.124 170.895 107.089 170.737 107.018C170.58 106.947 170.449 106.839 170.345 106.693C170.243 106.548 170.192 106.365 170.192 106.144V102.36ZM174.021 107.154C173.655 107.154 173.339 107.073 173.073 106.911C172.809 106.748 172.605 106.52 172.461 106.228C172.319 105.934 172.248 105.592 172.248 105.203C172.248 104.813 172.319 104.47 172.461 104.173C172.605 103.874 172.805 103.641 173.06 103.474C173.318 103.306 173.618 103.222 173.962 103.222C174.16 103.222 174.356 103.255 174.549 103.321C174.742 103.387 174.918 103.494 175.076 103.643C175.235 103.79 175.361 103.984 175.455 104.227C175.549 104.47 175.596 104.769 175.596 105.123V105.371H172.664V104.866H175.002C175.002 104.651 174.959 104.46 174.873 104.291C174.789 104.123 174.668 103.99 174.512 103.893C174.356 103.795 174.173 103.747 173.962 103.747C173.729 103.747 173.528 103.804 173.358 103.92C173.189 104.034 173.06 104.182 172.969 104.366C172.878 104.549 172.833 104.745 172.833 104.955V105.292C172.833 105.579 172.882 105.823 172.981 106.022C173.082 106.22 173.221 106.371 173.4 106.475C173.578 106.578 173.785 106.629 174.021 106.629C174.175 106.629 174.313 106.608 174.437 106.565C174.563 106.52 174.671 106.454 174.762 106.367C174.852 106.277 174.923 106.167 174.972 106.035L175.537 106.193C175.477 106.385 175.377 106.553 175.237 106.698C175.097 106.842 174.923 106.954 174.717 107.035C174.511 107.114 174.279 107.154 174.021 107.154ZM176.485 107.075V103.271H177.05V103.866H177.099C177.178 103.662 177.306 103.505 177.483 103.393C177.66 103.279 177.872 103.222 178.119 103.222C178.37 103.222 178.579 103.279 178.746 103.393C178.914 103.505 179.045 103.662 179.14 103.866H179.179C179.277 103.669 179.423 103.513 179.617 103.398C179.812 103.28 180.046 103.222 180.318 103.222C180.658 103.222 180.936 103.328 181.153 103.541C181.369 103.752 181.477 104.082 181.477 104.529V107.075H180.893V104.529C180.893 104.249 180.816 104.048 180.662 103.927C180.509 103.807 180.328 103.747 180.12 103.747C179.853 103.747 179.646 103.828 179.499 103.989C179.352 104.149 179.278 104.353 179.278 104.598V107.075H178.684V104.47C178.684 104.253 178.614 104.079 178.473 103.947C178.333 103.814 178.152 103.747 177.931 103.747C177.779 103.747 177.637 103.787 177.505 103.868C177.375 103.949 177.269 104.061 177.188 104.205C177.109 104.347 177.069 104.511 177.069 104.698V107.075H176.485ZM185.368 107.075L184.21 103.271H184.824L185.646 106.183H185.685L186.498 103.271H187.122L187.924 106.173H187.964L188.786 103.271H189.4L188.241 107.075H187.666L186.834 104.153H186.775L185.943 107.075H185.368ZM190.172 107.075V103.271H190.757V107.075H190.172ZM190.47 102.637C190.356 102.637 190.257 102.599 190.175 102.521C190.094 102.443 190.054 102.35 190.054 102.241C190.054 102.132 190.094 102.039 190.175 101.961C190.257 101.884 190.356 101.845 190.47 101.845C190.583 101.845 190.681 101.884 190.762 101.961C190.844 102.039 190.886 102.132 190.886 102.241C190.886 102.35 190.844 102.443 190.762 102.521C190.681 102.599 190.583 102.637 190.47 102.637ZM193.481 103.271V103.766H191.51V103.271H193.481ZM192.085 102.36H192.669V105.985C192.669 106.15 192.693 106.274 192.741 106.357C192.79 106.437 192.853 106.492 192.929 106.52C193.007 106.546 193.088 106.56 193.174 106.56C193.239 106.56 193.291 106.556 193.333 106.55C193.374 106.541 193.407 106.535 193.432 106.53L193.551 107.055C193.511 107.07 193.456 107.085 193.385 107.099C193.314 107.116 193.224 107.124 193.115 107.124C192.95 107.124 192.788 107.089 192.629 107.018C192.473 106.947 192.342 106.839 192.238 106.693C192.136 106.548 192.085 106.365 192.085 106.144V102.36ZM195.026 104.787V107.075H194.442V102.003H195.026V103.866H195.076C195.165 103.669 195.299 103.513 195.477 103.398C195.657 103.28 195.896 103.222 196.195 103.222C196.454 103.222 196.681 103.274 196.876 103.378C197.071 103.48 197.222 103.638 197.329 103.851C197.438 104.062 197.493 104.331 197.493 104.658V107.075H196.908V104.698C196.908 104.395 196.83 104.162 196.673 103.997C196.518 103.83 196.302 103.747 196.027 103.747C195.835 103.747 195.664 103.787 195.512 103.868C195.361 103.949 195.243 104.067 195.155 104.222C195.069 104.377 195.026 104.565 195.026 104.787ZM200.602 107.075V102.003H202.316C202.712 102.003 203.037 102.071 203.291 102.206C203.546 102.34 203.734 102.524 203.856 102.759C203.978 102.993 204.039 103.26 204.039 103.558C204.039 103.857 203.978 104.122 203.856 104.353C203.734 104.584 203.546 104.766 203.294 104.898C203.041 105.029 202.719 105.094 202.326 105.094H200.939V104.539H202.306C202.577 104.539 202.794 104.499 202.96 104.42C203.126 104.341 203.247 104.229 203.321 104.083C203.397 103.937 203.435 103.762 203.435 103.558C203.435 103.355 203.397 103.178 203.321 103.026C203.245 102.874 203.124 102.757 202.957 102.674C202.79 102.59 202.57 102.548 202.296 102.548H201.216V107.075H200.602ZM202.989 104.797L204.237 107.075H203.524L202.296 104.797H202.989ZM206.103 107.164C205.861 107.164 205.643 107.118 205.446 107.028C205.25 106.935 205.094 106.802 204.978 106.629C204.863 106.454 204.805 106.243 204.805 105.995C204.805 105.777 204.848 105.601 204.934 105.465C205.02 105.328 205.134 105.221 205.278 105.143C205.422 105.066 205.58 105.008 205.753 104.97C205.928 104.93 206.104 104.899 206.281 104.876C206.512 104.846 206.699 104.824 206.843 104.809C206.988 104.792 207.094 104.765 207.16 104.727C207.228 104.689 207.261 104.623 207.261 104.529V104.509C207.261 104.265 207.195 104.075 207.061 103.94C206.929 103.804 206.728 103.737 206.459 103.737C206.18 103.737 205.961 103.798 205.803 103.92C205.644 104.042 205.533 104.173 205.469 104.311L204.914 104.113C205.013 103.882 205.145 103.702 205.31 103.573C205.477 103.443 205.658 103.352 205.855 103.301C206.053 103.248 206.248 103.222 206.439 103.222C206.561 103.222 206.702 103.237 206.86 103.266C207.02 103.294 207.175 103.353 207.323 103.442C207.474 103.531 207.598 103.666 207.697 103.846C207.796 104.026 207.846 104.267 207.846 104.569V107.075H207.261V106.56H207.232C207.192 106.642 207.126 106.731 207.034 106.825C206.941 106.919 206.818 106.999 206.665 107.065C206.511 107.131 206.324 107.164 206.103 107.164ZM206.192 106.639C206.423 106.639 206.618 106.593 206.776 106.503C206.936 106.412 207.057 106.295 207.138 106.151C207.22 106.007 207.261 105.856 207.261 105.698V105.163C207.237 105.193 207.182 105.22 207.098 105.245C207.015 105.268 206.92 105.289 206.811 105.307C206.703 105.323 206.599 105.338 206.496 105.351C206.396 105.363 206.314 105.373 206.251 105.381C206.099 105.401 205.957 105.433 205.825 105.478C205.695 105.52 205.589 105.586 205.508 105.673C205.429 105.759 205.389 105.876 205.389 106.025C205.389 106.228 205.464 106.381 205.615 106.485C205.767 106.588 205.959 106.639 206.192 106.639ZM211.607 104.123L211.082 104.272C211.049 104.184 211 104.099 210.935 104.017C210.873 103.932 210.787 103.863 210.678 103.809C210.569 103.754 210.43 103.727 210.259 103.727C210.027 103.727 209.833 103.781 209.678 103.888C209.524 103.993 209.447 104.128 209.447 104.291C209.447 104.437 209.5 104.551 209.606 104.636C209.711 104.72 209.876 104.79 210.101 104.846L210.666 104.985C211.006 105.067 211.259 105.194 211.426 105.364C211.592 105.532 211.676 105.749 211.676 106.015C211.676 106.233 211.613 106.428 211.488 106.599C211.364 106.771 211.191 106.906 210.968 107.005C210.745 107.104 210.486 107.154 210.19 107.154C209.802 107.154 209.481 107.07 209.227 106.901C208.973 106.733 208.812 106.487 208.744 106.163L209.299 106.025C209.352 106.229 209.451 106.383 209.598 106.485C209.747 106.588 209.941 106.639 210.18 106.639C210.453 106.639 210.669 106.581 210.829 106.466C210.991 106.348 211.072 106.208 211.072 106.045C211.072 105.913 211.025 105.802 210.933 105.713C210.841 105.622 210.699 105.554 210.507 105.51L209.873 105.361C209.525 105.279 209.269 105.151 209.106 104.977C208.944 104.802 208.863 104.584 208.863 104.321C208.863 104.107 208.923 103.917 209.044 103.752C209.166 103.587 209.332 103.457 209.541 103.363C209.753 103.269 209.992 103.222 210.259 103.222C210.636 103.222 210.931 103.304 211.146 103.469C211.362 103.634 211.516 103.852 211.607 104.123ZM212.556 108.501V103.271H213.12V103.875H213.189C213.232 103.809 213.292 103.725 213.368 103.623C213.445 103.519 213.556 103.426 213.7 103.346C213.845 103.263 214.041 103.222 214.289 103.222C214.609 103.222 214.891 103.302 215.136 103.462C215.38 103.622 215.571 103.849 215.708 104.143C215.845 104.437 215.913 104.783 215.913 105.183C215.913 105.586 215.845 105.935 215.708 106.23C215.571 106.524 215.381 106.752 215.138 106.914C214.896 107.074 214.616 107.154 214.299 107.154C214.054 107.154 213.859 107.114 213.712 107.033C213.565 106.95 213.452 106.857 213.373 106.753C213.293 106.647 213.232 106.56 213.189 106.49H213.14V108.501H212.556ZM213.13 105.173C213.13 105.46 213.172 105.714 213.256 105.933C213.341 106.151 213.463 106.322 213.625 106.446C213.787 106.568 213.985 106.629 214.22 106.629C214.464 106.629 214.668 106.565 214.831 106.436C214.996 106.305 215.12 106.13 215.203 105.911C215.287 105.69 215.329 105.444 215.329 105.173C215.329 104.906 215.288 104.665 215.205 104.45C215.124 104.234 215.001 104.063 214.836 103.937C214.673 103.81 214.467 103.747 214.22 103.747C213.982 103.747 213.782 103.807 213.62 103.927C213.459 104.046 213.336 104.213 213.254 104.428C213.171 104.641 213.13 104.889 213.13 105.173ZM216.884 107.075V102.003H217.468V103.875H217.518C217.561 103.809 217.62 103.725 217.696 103.623C217.774 103.519 217.884 103.426 218.028 103.346C218.173 103.263 218.37 103.222 218.617 103.222C218.938 103.222 219.22 103.302 219.464 103.462C219.709 103.622 219.899 103.849 220.036 104.143C220.173 104.437 220.242 104.783 220.242 105.183C220.242 105.586 220.173 105.935 220.036 106.23C219.899 106.524 219.709 106.752 219.467 106.914C219.224 107.074 218.944 107.154 218.627 107.154C218.383 107.154 218.187 107.114 218.04 107.033C217.893 106.95 217.78 106.857 217.701 106.753C217.622 106.647 217.561 106.56 217.518 106.49H217.449V107.075H216.884ZM217.458 105.173C217.458 105.46 217.501 105.714 217.585 105.933C217.669 106.151 217.792 106.322 217.954 106.446C218.115 106.568 218.314 106.629 218.548 106.629C218.792 106.629 218.996 106.565 219.16 106.436C219.325 106.305 219.449 106.13 219.531 105.911C219.615 105.69 219.657 105.444 219.657 105.173C219.657 104.906 219.616 104.665 219.534 104.45C219.453 104.234 219.33 104.063 219.165 103.937C219.001 103.81 218.796 103.747 218.548 103.747C218.31 103.747 218.111 103.807 217.949 103.927C217.787 104.046 217.665 104.213 217.582 104.428C217.5 104.641 217.458 104.889 217.458 105.173ZM222.73 107.154C222.364 107.154 222.048 107.073 221.782 106.911C221.518 106.748 221.314 106.52 221.17 106.228C221.028 105.934 220.957 105.592 220.957 105.203C220.957 104.813 221.028 104.47 221.17 104.173C221.314 103.874 221.514 103.641 221.77 103.474C222.027 103.306 222.328 103.222 222.671 103.222C222.869 103.222 223.065 103.255 223.258 103.321C223.451 103.387 223.627 103.494 223.785 103.643C223.944 103.79 224.07 103.984 224.164 104.227C224.258 104.47 224.305 104.769 224.305 105.123V105.371H221.373V104.866H223.711C223.711 104.651 223.668 104.46 223.582 104.291C223.498 104.123 223.377 103.99 223.221 103.893C223.065 103.795 222.882 103.747 222.671 103.747C222.438 103.747 222.237 103.804 222.067 103.92C221.898 104.034 221.769 104.182 221.678 104.366C221.587 104.549 221.542 104.745 221.542 104.955V105.292C221.542 105.579 221.591 105.823 221.69 106.022C221.791 106.22 221.931 106.371 222.109 106.475C222.287 106.578 222.494 106.629 222.73 106.629C222.884 106.629 223.023 106.608 223.146 106.565C223.272 106.52 223.38 106.454 223.471 106.367C223.562 106.277 223.632 106.167 223.681 106.035L224.246 106.193C224.186 106.385 224.086 106.553 223.946 106.698C223.806 106.842 223.632 106.954 223.426 107.035C223.22 107.114 222.988 107.154 222.73 107.154ZM225.194 107.075V103.271H225.759V103.846H225.798C225.868 103.658 225.993 103.505 226.175 103.388C226.356 103.27 226.561 103.212 226.789 103.212C226.832 103.212 226.885 103.213 226.95 103.214C227.014 103.216 227.063 103.218 227.096 103.222V103.816C227.076 103.811 227.031 103.804 226.96 103.794C226.89 103.782 226.817 103.776 226.739 103.776C226.554 103.776 226.389 103.815 226.244 103.893C226.1 103.969 225.987 104.074 225.902 104.21C225.82 104.343 225.779 104.496 225.779 104.668V107.075H225.194ZM227.789 107.075V103.271H228.353V103.846H228.393C228.462 103.658 228.588 103.505 228.769 103.388C228.951 103.27 229.156 103.212 229.383 103.212C229.426 103.212 229.48 103.213 229.544 103.214C229.609 103.216 229.657 103.218 229.69 103.222V103.816C229.671 103.811 229.625 103.804 229.554 103.794C229.485 103.782 229.411 103.776 229.334 103.776C229.149 103.776 228.984 103.815 228.839 103.893C228.695 103.969 228.581 104.074 228.497 104.21C228.414 104.343 228.373 104.496 228.373 104.668V107.075H227.789ZM230.875 108.501C230.776 108.501 230.688 108.493 230.61 108.476C230.533 108.461 230.479 108.447 230.449 108.432L230.598 107.917C230.74 107.953 230.865 107.966 230.974 107.956C231.083 107.946 231.18 107.898 231.264 107.81C231.35 107.724 231.428 107.585 231.499 107.392L231.608 107.095L230.202 103.271H230.836L231.886 106.302H231.925L232.975 103.271H233.609L231.994 107.629C231.922 107.826 231.832 107.988 231.725 108.117C231.617 108.248 231.493 108.344 231.351 108.407C231.21 108.47 231.052 108.501 230.875 108.501ZM236.421 107.075V102.003H238.134C238.532 102.003 238.857 102.075 239.11 102.219C239.364 102.361 239.552 102.553 239.674 102.796C239.797 103.038 239.858 103.309 239.858 103.608C239.858 103.907 239.797 104.178 239.674 104.423C239.554 104.667 239.367 104.862 239.115 105.007C238.862 105.151 238.539 105.222 238.144 105.222H236.916V104.678H238.124C238.397 104.678 238.615 104.631 238.781 104.537C238.946 104.442 239.065 104.315 239.14 104.155C239.216 103.993 239.254 103.811 239.254 103.608C239.254 103.405 239.216 103.223 239.14 103.063C239.065 102.903 238.945 102.778 238.778 102.687C238.611 102.594 238.39 102.548 238.114 102.548H237.035V107.075H236.421ZM240.768 107.075V103.271H241.352V107.075H240.768ZM241.065 102.637C240.951 102.637 240.853 102.599 240.77 102.521C240.689 102.443 240.649 102.35 240.649 102.241C240.649 102.132 240.689 102.039 240.77 101.961C240.853 101.884 240.951 101.845 241.065 101.845C241.179 101.845 241.276 101.884 241.357 101.961C241.44 102.039 241.481 102.132 241.481 102.241C241.481 102.35 241.44 102.443 241.357 102.521C241.276 102.599 241.179 102.637 241.065 102.637ZM244.602 104.628V105.173H242.383V104.628H244.602ZM245.709 107.075V102.003H247.482C247.835 102.003 248.127 102.064 248.356 102.187C248.586 102.307 248.756 102.47 248.869 102.674C248.981 102.878 249.037 103.103 249.037 103.35C249.037 103.568 248.998 103.748 248.921 103.89C248.845 104.032 248.744 104.145 248.619 104.227C248.495 104.31 248.36 104.371 248.215 104.41V104.46C248.37 104.47 248.526 104.524 248.683 104.623C248.84 104.722 248.971 104.864 249.077 105.049C249.182 105.234 249.235 105.46 249.235 105.728C249.235 105.982 249.177 106.211 249.062 106.414C248.946 106.617 248.764 106.778 248.515 106.896C248.265 107.015 247.941 107.075 247.541 107.075H245.709ZM246.323 106.53H247.541C247.943 106.53 248.227 106.452 248.396 106.297C248.566 106.14 248.651 105.951 248.651 105.728C248.651 105.556 248.607 105.397 248.52 105.252C248.432 105.105 248.307 104.988 248.146 104.901C247.984 104.811 247.792 104.767 247.571 104.767H246.323V106.53ZM246.323 104.232H247.462C247.647 104.232 247.814 104.196 247.962 104.123C248.113 104.05 248.231 103.948 248.319 103.816C248.408 103.684 248.453 103.529 248.453 103.35C248.453 103.128 248.375 102.939 248.22 102.783C248.065 102.627 247.819 102.548 247.482 102.548H246.323V104.232ZM251.284 107.164C251.043 107.164 250.824 107.118 250.628 107.028C250.432 106.935 250.276 106.802 250.16 106.629C250.044 106.454 249.987 106.243 249.987 105.995C249.987 105.777 250.03 105.601 250.115 105.465C250.201 105.328 250.316 105.221 250.46 105.143C250.603 105.066 250.762 105.008 250.935 104.97C251.11 104.93 251.286 104.899 251.463 104.876C251.694 104.846 251.881 104.824 252.025 104.809C252.17 104.792 252.276 104.765 252.342 104.727C252.409 104.689 252.443 104.623 252.443 104.529V104.509C252.443 104.265 252.376 104.075 252.243 103.94C252.11 103.804 251.91 103.737 251.641 103.737C251.362 103.737 251.143 103.798 250.985 103.92C250.826 104.042 250.715 104.173 250.65 104.311L250.096 104.113C250.195 103.882 250.327 103.702 250.492 103.573C250.659 103.443 250.84 103.352 251.037 103.301C251.235 103.248 251.43 103.222 251.621 103.222C251.743 103.222 251.883 103.237 252.042 103.266C252.202 103.294 252.356 103.353 252.505 103.442C252.655 103.531 252.78 103.666 252.879 103.846C252.978 104.026 253.028 104.267 253.028 104.569V107.075H252.443V106.56H252.413C252.374 106.642 252.308 106.731 252.215 106.825C252.123 106.919 252 106.999 251.846 107.065C251.693 107.131 251.505 107.164 251.284 107.164ZM251.373 106.639C251.604 106.639 251.799 106.593 251.958 106.503C252.118 106.412 252.238 106.295 252.319 106.151C252.402 106.007 252.443 105.856 252.443 105.698V105.163C252.418 105.193 252.364 105.22 252.28 105.245C252.197 105.268 252.101 105.289 251.992 105.307C251.885 105.323 251.78 105.338 251.678 105.351C251.577 105.363 251.496 105.373 251.433 105.381C251.281 105.401 251.139 105.433 251.007 105.478C250.876 105.52 250.771 105.586 250.69 105.673C250.611 105.759 250.571 105.876 250.571 106.025C250.571 106.228 250.646 106.381 250.796 106.485C250.948 106.588 251.141 106.639 251.373 106.639ZM256.788 104.123L256.263 104.272C256.23 104.184 256.182 104.099 256.117 104.017C256.054 103.932 255.969 103.863 255.86 103.809C255.751 103.754 255.611 103.727 255.441 103.727C255.208 103.727 255.014 103.781 254.859 103.888C254.706 103.993 254.629 104.128 254.629 104.291C254.629 104.437 254.682 104.551 254.787 104.636C254.893 104.72 255.058 104.79 255.283 104.846L255.847 104.985C256.187 105.067 256.441 105.194 256.607 105.364C256.774 105.532 256.858 105.749 256.858 106.015C256.858 106.233 256.795 106.428 256.669 106.599C256.546 106.771 256.372 106.906 256.149 107.005C255.927 107.104 255.667 107.154 255.372 107.154C254.984 107.154 254.663 107.07 254.409 106.901C254.154 106.733 253.993 106.487 253.926 106.163L254.48 106.025C254.533 106.229 254.633 106.383 254.78 106.485C254.929 106.588 255.123 106.639 255.362 106.639C255.634 106.639 255.851 106.581 256.011 106.466C256.173 106.348 256.253 106.208 256.253 106.045C256.253 105.913 256.207 105.802 256.115 105.713C256.022 105.622 255.88 105.554 255.689 105.51L255.055 105.361C254.707 105.279 254.451 105.151 254.287 104.977C254.125 104.802 254.045 104.584 254.045 104.321C254.045 104.107 254.105 103.917 254.225 103.752C254.348 103.587 254.513 103.457 254.723 103.363C254.934 103.269 255.174 103.222 255.441 103.222C255.818 103.222 256.113 103.304 256.328 103.469C256.544 103.634 256.697 103.852 256.788 104.123ZM259.332 107.154C258.965 107.154 258.649 107.073 258.384 106.911C258.119 106.748 257.916 106.52 257.772 106.228C257.63 105.934 257.559 105.592 257.559 105.203C257.559 104.813 257.63 104.47 257.772 104.173C257.916 103.874 258.115 103.641 258.371 103.474C258.629 103.306 258.929 103.222 259.273 103.222C259.471 103.222 259.666 103.255 259.859 103.321C260.053 103.387 260.228 103.494 260.387 103.643C260.545 103.79 260.672 103.984 260.766 104.227C260.86 104.47 260.907 104.769 260.907 105.123V105.371H257.975V104.866H260.313C260.313 104.651 260.27 104.46 260.184 104.291C260.1 104.123 259.979 103.99 259.822 103.893C259.667 103.795 259.484 103.747 259.273 103.747C259.04 103.747 258.838 103.804 258.668 103.92C258.5 104.034 258.37 104.182 258.28 104.366C258.189 104.549 258.143 104.745 258.143 104.955V105.292C258.143 105.579 258.193 105.823 258.292 106.022C258.393 106.22 258.532 106.371 258.71 106.475C258.889 106.578 259.096 106.629 259.332 106.629C259.485 106.629 259.624 106.608 259.748 106.565C259.873 106.52 259.982 106.454 260.072 106.367C260.163 106.277 260.233 106.167 260.283 106.035L260.847 106.193C260.788 106.385 260.688 106.553 260.548 106.698C260.407 106.842 260.234 106.954 260.028 107.035C259.821 107.114 259.589 107.154 259.332 107.154ZM263.232 107.154C262.915 107.154 262.635 107.074 262.393 106.914C262.15 106.752 261.96 106.524 261.823 106.23C261.686 105.935 261.618 105.586 261.618 105.183C261.618 104.783 261.686 104.437 261.823 104.143C261.96 103.849 262.151 103.622 262.395 103.462C262.639 103.302 262.922 103.222 263.242 103.222C263.49 103.222 263.685 103.263 263.829 103.346C263.974 103.426 264.085 103.519 264.161 103.623C264.238 103.725 264.298 103.809 264.341 103.875H264.391V102.003H264.975V107.075H264.411V106.49H264.341C264.298 106.56 264.237 106.647 264.158 106.753C264.079 106.857 263.966 106.95 263.819 107.033C263.672 107.114 263.476 107.154 263.232 107.154ZM263.311 106.629C263.546 106.629 263.744 106.568 263.906 106.446C264.067 106.322 264.19 106.151 264.274 105.933C264.359 105.714 264.401 105.46 264.401 105.173C264.401 104.889 264.36 104.641 264.277 104.428C264.194 104.213 264.072 104.046 263.91 103.927C263.749 103.807 263.549 103.747 263.311 103.747C263.064 103.747 262.857 103.81 262.692 103.937C262.529 104.063 262.406 104.234 262.323 104.45C262.242 104.665 262.202 104.906 262.202 105.173C262.202 105.444 262.243 105.69 262.326 105.911C262.41 106.13 262.534 106.305 262.697 106.436C262.862 106.565 263.067 106.629 263.311 106.629ZM268.167 102.003H268.9L270.624 106.213H270.683L272.406 102.003H273.139V107.075H272.565V103.222H272.515L270.931 107.075H270.376L268.791 103.222H268.742V107.075H268.167V102.003ZM275.411 107.164C275.17 107.164 274.951 107.118 274.754 107.028C274.558 106.935 274.402 106.802 274.286 106.629C274.171 106.454 274.113 106.243 274.113 105.995C274.113 105.777 274.156 105.601 274.242 105.465C274.328 105.328 274.442 105.221 274.586 105.143C274.73 105.066 274.888 105.008 275.062 104.97C275.237 104.93 275.412 104.899 275.589 104.876C275.82 104.846 276.007 104.824 276.151 104.809C276.296 104.792 276.402 104.765 276.468 104.727C276.536 104.689 276.57 104.623 276.57 104.529V104.509C276.57 104.265 276.503 104.075 276.369 103.94C276.237 103.804 276.036 103.737 275.767 103.737C275.488 103.737 275.27 103.798 275.111 103.92C274.953 104.042 274.841 104.173 274.777 104.311L274.222 104.113C274.321 103.882 274.453 103.702 274.618 103.573C274.785 103.443 274.967 103.352 275.163 103.301C275.361 103.248 275.556 103.222 275.747 103.222C275.87 103.222 276.01 103.237 276.168 103.266C276.329 103.294 276.483 103.353 276.631 103.442C276.782 103.531 276.906 103.666 277.005 103.846C277.104 104.026 277.154 104.267 277.154 104.569V107.075H276.57V106.56H276.54C276.5 106.642 276.434 106.731 276.342 106.825C276.249 106.919 276.126 106.999 275.973 107.065C275.819 107.131 275.632 107.164 275.411 107.164ZM275.5 106.639C275.731 106.639 275.926 106.593 276.084 106.503C276.244 106.412 276.365 106.295 276.446 106.151C276.528 106.007 276.57 105.856 276.57 105.698V105.163C276.545 105.193 276.49 105.22 276.406 105.245C276.324 105.268 276.228 105.289 276.119 105.307C276.012 105.323 275.907 105.338 275.804 105.351C275.704 105.363 275.622 105.373 275.559 105.381C275.407 105.401 275.265 105.433 275.133 105.478C275.003 105.52 274.897 105.586 274.816 105.673C274.737 105.759 274.698 105.876 274.698 106.025C274.698 106.228 274.773 106.381 274.923 106.485C275.075 106.588 275.267 106.639 275.5 106.639ZM279.766 107.154C279.409 107.154 279.102 107.07 278.845 106.901C278.587 106.733 278.389 106.501 278.25 106.206C278.112 105.91 278.042 105.572 278.042 105.193C278.042 104.806 278.113 104.466 278.255 104.17C278.399 103.873 278.599 103.641 278.854 103.474C279.112 103.306 279.412 103.222 279.756 103.222C280.023 103.222 280.264 103.271 280.479 103.37C280.693 103.469 280.869 103.608 281.006 103.786C281.143 103.965 281.228 104.173 281.261 104.41H280.677C280.632 104.237 280.533 104.083 280.38 103.95C280.228 103.814 280.023 103.747 279.766 103.747C279.538 103.747 279.338 103.806 279.166 103.925C278.996 104.042 278.864 104.208 278.768 104.423C278.674 104.636 278.627 104.886 278.627 105.173C278.627 105.467 278.673 105.723 278.765 105.941C278.859 106.159 278.991 106.328 279.162 106.448C279.333 106.569 279.535 106.629 279.766 106.629C279.918 106.629 280.055 106.603 280.179 106.55C280.303 106.497 280.408 106.421 280.494 106.322C280.58 106.223 280.641 106.104 280.677 105.965H281.261C281.228 106.19 281.147 106.392 281.016 106.572C280.887 106.75 280.717 106.892 280.504 106.998C280.292 107.102 280.046 107.154 279.766 107.154ZM282.7 104.787V107.075H282.116V102.003H282.7V103.866H282.75C282.839 103.669 282.972 103.513 283.151 103.398C283.331 103.28 283.57 103.222 283.869 103.222C284.128 103.222 284.355 103.274 284.55 103.378C284.745 103.48 284.896 103.638 285.003 103.851C285.112 104.062 285.166 104.331 285.166 104.658V107.075H284.582V104.698C284.582 104.395 284.504 104.162 284.347 103.997C284.192 103.83 283.976 103.747 283.7 103.747C283.509 103.747 283.337 103.787 283.185 103.868C283.035 103.949 282.916 104.067 282.829 104.222C282.743 104.377 282.7 104.565 282.7 104.787ZM286.235 107.075V103.271H286.82V107.075H286.235ZM286.533 102.637C286.419 102.637 286.32 102.599 286.238 102.521C286.157 102.443 286.117 102.35 286.117 102.241C286.117 102.132 286.157 102.039 286.238 101.961C286.32 101.884 286.419 101.845 286.533 101.845C286.647 101.845 286.744 101.884 286.825 101.961C286.907 102.039 286.949 102.132 286.949 102.241C286.949 102.35 286.907 102.443 286.825 102.521C286.744 102.599 286.647 102.637 286.533 102.637ZM288.475 104.787V107.075H287.89V103.271H288.455V103.866H288.504C288.593 103.672 288.729 103.517 288.91 103.4C289.092 103.281 289.326 103.222 289.614 103.222C289.871 103.222 290.097 103.275 290.29 103.38C290.483 103.484 290.633 103.643 290.74 103.856C290.848 104.067 290.901 104.334 290.901 104.658V107.075H290.317V104.698C290.317 104.399 290.239 104.166 290.084 103.999C289.929 103.831 289.716 103.747 289.445 103.747C289.259 103.747 289.092 103.787 288.945 103.868C288.8 103.949 288.685 104.067 288.601 104.222C288.517 104.377 288.475 104.565 288.475 104.787ZM293.564 107.154C293.197 107.154 292.881 107.073 292.615 106.911C292.351 106.748 292.147 106.52 292.004 106.228C291.862 105.934 291.791 105.592 291.791 105.203C291.791 104.813 291.862 104.47 292.004 104.173C292.147 103.874 292.347 103.641 292.603 103.474C292.861 103.306 293.161 103.222 293.504 103.222C293.703 103.222 293.898 103.255 294.091 103.321C294.284 103.387 294.46 103.494 294.619 103.643C294.777 103.79 294.903 103.984 294.998 104.227C295.092 104.47 295.139 104.769 295.139 105.123V105.371H292.207V104.866H294.544C294.544 104.651 294.502 104.46 294.416 104.291C294.331 104.123 294.211 103.99 294.054 103.893C293.899 103.795 293.716 103.747 293.504 103.747C293.272 103.747 293.07 103.804 292.9 103.92C292.732 104.034 292.602 104.182 292.511 104.366C292.421 104.549 292.375 104.745 292.375 104.955V105.292C292.375 105.579 292.425 105.823 292.524 106.022C292.625 106.22 292.764 106.371 292.942 106.475C293.121 106.578 293.328 106.629 293.564 106.629C293.717 106.629 293.856 106.608 293.98 106.565C294.105 106.52 294.213 106.454 294.304 106.367C294.395 106.277 294.465 106.167 294.515 106.035L295.079 106.193C295.02 106.385 294.92 106.553 294.78 106.698C294.639 106.842 294.466 106.954 294.26 107.035C294.053 107.114 293.821 107.154 293.564 107.154ZM298.068 107.075V102.003H298.682V106.53H301.04V107.075H298.068ZM303.506 107.154C303.139 107.154 302.823 107.073 302.557 106.911C302.293 106.748 302.089 106.52 301.946 106.228C301.804 105.934 301.733 105.592 301.733 105.203C301.733 104.813 301.804 104.47 301.946 104.173C302.089 103.874 302.289 103.641 302.545 103.474C302.803 103.306 303.103 103.222 303.446 103.222C303.645 103.222 303.84 103.255 304.033 103.321C304.226 103.387 304.402 103.494 304.561 103.643C304.719 103.79 304.845 103.984 304.94 104.227C305.034 104.47 305.081 104.769 305.081 105.123V105.371H302.149V104.866H304.486C304.486 104.651 304.444 104.46 304.358 104.291C304.273 104.123 304.153 103.99 303.996 103.893C303.841 103.795 303.658 103.747 303.446 103.747C303.214 103.747 303.012 103.804 302.842 103.92C302.674 104.034 302.544 104.182 302.453 104.366C302.363 104.549 302.317 104.745 302.317 104.955V105.292C302.317 105.579 302.367 105.823 302.466 106.022C302.567 106.22 302.706 106.371 302.884 106.475C303.063 106.578 303.27 106.629 303.506 106.629C303.659 106.629 303.798 106.608 303.922 106.565C304.047 106.52 304.155 106.454 304.246 106.367C304.337 106.277 304.407 106.167 304.457 106.035L305.021 106.193C304.962 106.385 304.862 106.553 304.722 106.698C304.581 106.842 304.408 106.954 304.202 107.035C303.995 107.114 303.763 107.154 303.506 107.154ZM307.089 107.164C306.848 107.164 306.629 107.118 306.433 107.028C306.236 106.935 306.08 106.802 305.965 106.629C305.849 106.454 305.791 106.243 305.791 105.995C305.791 105.777 305.834 105.601 305.92 105.465C306.006 105.328 306.121 105.221 306.264 105.143C306.408 105.066 306.566 105.008 306.74 104.97C306.915 104.93 307.091 104.899 307.267 104.876C307.498 104.846 307.686 104.824 307.829 104.809C307.975 104.792 308.08 104.765 308.146 104.727C308.214 104.689 308.248 104.623 308.248 104.529V104.509C308.248 104.265 308.181 104.075 308.047 103.94C307.915 103.804 307.715 103.737 307.446 103.737C307.167 103.737 306.948 103.798 306.789 103.92C306.631 104.042 306.519 104.173 306.455 104.311L305.9 104.113C305.999 103.882 306.131 103.702 306.297 103.573C306.463 103.443 306.645 103.352 306.841 103.301C307.039 103.248 307.234 103.222 307.426 103.222C307.548 103.222 307.688 103.237 307.847 103.266C308.007 103.294 308.161 103.353 308.31 103.442C308.46 103.531 308.585 103.666 308.684 103.846C308.783 104.026 308.832 104.267 308.832 104.569V107.075H308.248V106.56H308.218C308.178 106.642 308.112 106.731 308.02 106.825C307.928 106.919 307.805 106.999 307.651 107.065C307.498 107.131 307.31 107.164 307.089 107.164ZM307.178 106.639C307.409 106.639 307.604 106.593 307.762 106.503C307.923 106.412 308.043 106.295 308.124 106.151C308.207 106.007 308.248 105.856 308.248 105.698V105.163C308.223 105.193 308.169 105.22 308.084 105.245C308.002 105.268 307.906 105.289 307.797 105.307C307.69 105.323 307.585 105.338 307.483 105.351C307.382 105.363 307.3 105.373 307.238 105.381C307.086 105.401 306.944 105.433 306.812 105.478C306.681 105.52 306.576 105.586 306.495 105.673C306.415 105.759 306.376 105.876 306.376 106.025C306.376 106.228 306.451 106.381 306.601 106.485C306.753 106.588 306.945 106.639 307.178 106.639ZM309.899 107.075V103.271H310.463V103.846H310.503C310.572 103.658 310.698 103.505 310.879 103.388C311.061 103.27 311.266 103.212 311.494 103.212C311.536 103.212 311.59 103.213 311.654 103.214C311.719 103.216 311.768 103.218 311.801 103.222V103.816C311.781 103.811 311.735 103.804 311.664 103.794C311.595 103.782 311.522 103.776 311.444 103.776C311.259 103.776 311.094 103.815 310.949 103.893C310.805 103.969 310.691 104.074 310.607 104.21C310.525 104.343 310.483 104.496 310.483 104.668V107.075H309.899ZM313.078 104.787V107.075H312.493V103.271H313.058V103.866H313.107C313.197 103.672 313.332 103.517 313.514 103.4C313.695 103.281 313.93 103.222 314.217 103.222C314.474 103.222 314.7 103.275 314.893 103.38C315.086 103.484 315.236 103.643 315.343 103.856C315.451 104.067 315.504 104.334 315.504 104.658V107.075H314.92V104.698C314.92 104.399 314.842 104.166 314.687 103.999C314.532 103.831 314.319 103.747 314.048 103.747C313.862 103.747 313.695 103.787 313.548 103.868C313.403 103.949 313.288 104.067 313.204 104.222C313.12 104.377 313.078 104.565 313.078 104.787ZM316.572 107.075V103.271H317.157V107.075H316.572ZM316.869 102.637C316.756 102.637 316.657 102.599 316.575 102.521C316.494 102.443 316.453 102.35 316.453 102.241C316.453 102.132 316.494 102.039 316.575 101.961C316.657 101.884 316.756 101.845 316.869 101.845C316.983 101.845 317.081 101.884 317.162 101.961C317.244 102.039 317.285 102.132 317.285 102.241C317.285 102.35 317.244 102.443 317.162 102.521C317.081 102.599 316.983 102.637 316.869 102.637ZM318.811 104.787V107.075H318.227V103.271H318.792V103.866H318.841C318.93 103.672 319.066 103.517 319.247 103.4C319.429 103.281 319.663 103.222 319.95 103.222C320.208 103.222 320.433 103.275 320.626 103.38C320.82 103.484 320.97 103.643 321.077 103.856C321.184 104.067 321.238 104.334 321.238 104.658V107.075H320.654V104.698C320.654 104.399 320.576 104.166 320.421 103.999C320.266 103.831 320.053 103.747 319.782 103.747C319.596 103.747 319.429 103.787 319.282 103.868C319.137 103.949 319.022 104.067 318.938 104.222C318.853 104.377 318.811 104.565 318.811 104.787ZM323.841 108.58C323.559 108.58 323.316 108.544 323.113 108.471C322.91 108.4 322.741 108.306 322.606 108.189C322.472 108.073 322.365 107.95 322.286 107.818L322.752 107.491C322.804 107.56 322.871 107.639 322.952 107.728C323.033 107.819 323.144 107.898 323.284 107.964C323.426 108.031 323.612 108.065 323.841 108.065C324.148 108.065 324.402 107.991 324.601 107.842C324.801 107.694 324.901 107.461 324.901 107.144V106.371H324.852C324.809 106.441 324.748 106.527 324.668 106.629C324.591 106.73 324.478 106.82 324.331 106.899C324.186 106.976 323.99 107.015 323.742 107.015C323.435 107.015 323.159 106.943 322.915 106.797C322.672 106.652 322.48 106.441 322.338 106.163C322.198 105.886 322.128 105.549 322.128 105.153C322.128 104.764 322.196 104.424 322.333 104.135C322.47 103.845 322.661 103.62 322.905 103.462C323.15 103.302 323.432 103.222 323.752 103.222C324 103.222 324.196 103.263 324.341 103.346C324.488 103.426 324.601 103.519 324.678 103.623C324.757 103.725 324.818 103.809 324.861 103.875H324.921V103.271H325.485V107.184C325.485 107.511 325.411 107.776 325.263 107.981C325.116 108.187 324.918 108.338 324.668 108.434C324.421 108.532 324.145 108.58 323.841 108.58ZM323.821 106.49C324.056 106.49 324.254 106.437 324.416 106.329C324.577 106.222 324.7 106.068 324.785 105.866C324.869 105.665 324.911 105.424 324.911 105.143C324.911 104.869 324.87 104.627 324.787 104.418C324.705 104.208 324.582 104.044 324.421 103.925C324.259 103.806 324.059 103.747 323.821 103.747C323.574 103.747 323.367 103.809 323.202 103.935C323.039 104.06 322.916 104.229 322.833 104.44C322.752 104.651 322.712 104.886 322.712 105.143C322.712 105.407 322.753 105.641 322.836 105.844C322.92 106.045 323.044 106.204 323.207 106.319C323.372 106.433 323.577 106.49 323.821 106.49Z" fill="white"/>
<path d="M97.4918 111.639V112.134H95.4415V111.639H97.4918ZM96.0556 115.442V111.114C96.0556 110.896 96.1067 110.714 96.2091 110.569C96.3115 110.424 96.4443 110.315 96.6078 110.242C96.7712 110.17 96.9437 110.133 97.1253 110.133C97.2689 110.133 97.3861 110.145 97.4769 110.168C97.5677 110.191 97.6354 110.213 97.68 110.232L97.5116 110.738C97.4819 110.728 97.4406 110.715 97.3878 110.7C97.3366 110.686 97.2689 110.678 97.1847 110.678C96.9916 110.678 96.8521 110.727 96.7662 110.824C96.6821 110.922 96.64 111.064 96.64 111.253V115.442H96.0556ZM99.6993 115.522C99.356 115.522 99.0547 115.44 98.7955 115.276C98.538 115.113 98.3366 114.884 98.1913 114.591C98.0477 114.297 97.9759 113.953 97.9759 113.56C97.9759 113.164 98.0477 112.818 98.1913 112.523C98.3366 112.227 98.538 111.998 98.7955 111.835C99.0547 111.671 99.356 111.589 99.6993 111.589C100.043 111.589 100.343 111.671 100.601 111.835C100.86 111.998 101.061 112.227 101.205 112.523C101.35 112.818 101.423 113.164 101.423 113.56C101.423 113.953 101.35 114.297 101.205 114.591C101.061 114.884 100.86 115.113 100.601 115.276C100.343 115.44 100.043 115.522 99.6993 115.522ZM99.6993 114.997C99.9602 114.997 100.175 114.93 100.343 114.796C100.512 114.662 100.636 114.487 100.717 114.269C100.798 114.051 100.838 113.815 100.838 113.56C100.838 113.306 100.798 113.069 100.717 112.85C100.636 112.63 100.512 112.453 100.343 112.317C100.175 112.182 99.9602 112.114 99.6993 112.114C99.4385 112.114 99.2239 112.182 99.0555 112.317C98.8871 112.453 98.7625 112.63 98.6816 112.85C98.6007 113.069 98.5603 113.306 98.5603 113.56C98.5603 113.815 98.6007 114.051 98.6816 114.269C98.7625 114.487 98.8871 114.662 99.0555 114.796C99.2239 114.93 99.4385 114.997 99.6993 114.997ZM102.315 115.442V111.639H102.879V112.213H102.919C102.988 112.025 103.114 111.872 103.295 111.755C103.477 111.638 103.682 111.579 103.91 111.579C103.952 111.579 104.006 111.58 104.07 111.582C104.135 111.584 104.184 111.586 104.217 111.589V112.184C104.197 112.179 104.151 112.171 104.08 112.161C104.011 112.15 103.938 112.144 103.86 112.144C103.675 112.144 103.51 112.183 103.365 112.26C103.221 112.336 103.107 112.442 103.023 112.577C102.94 112.711 102.899 112.864 102.899 113.035V115.442H102.315ZM110.971 110.371V115.442H110.377L107.613 111.461H107.564V115.442H106.95V110.371H107.544L110.317 114.363H110.367V110.371H110.971ZM113.666 115.522C113.322 115.522 113.021 115.44 112.762 115.276C112.504 115.113 112.303 114.884 112.158 114.591C112.014 114.297 111.942 113.953 111.942 113.56C111.942 113.164 112.014 112.818 112.158 112.523C112.303 112.227 112.504 111.998 112.762 111.835C113.021 111.671 113.322 111.589 113.666 111.589C114.009 111.589 114.31 111.671 114.567 111.835C114.826 111.998 115.028 112.227 115.171 112.523C115.317 112.818 115.389 113.164 115.389 113.56C115.389 113.953 115.317 114.297 115.171 114.591C115.028 114.884 114.826 115.113 114.567 115.276C114.31 115.44 114.009 115.522 113.666 115.522ZM113.666 114.997C113.927 114.997 114.141 114.93 114.31 114.796C114.478 114.662 114.603 114.487 114.684 114.269C114.764 114.051 114.805 113.815 114.805 113.56C114.805 113.306 114.764 113.069 114.684 112.85C114.603 112.63 114.478 112.453 114.31 112.317C114.141 112.182 113.927 112.114 113.666 112.114C113.405 112.114 113.19 112.182 113.022 112.317C112.854 112.453 112.729 112.63 112.648 112.85C112.567 113.069 112.527 113.306 112.527 113.56C112.527 113.815 112.567 114.051 112.648 114.269C112.729 114.487 112.854 114.662 113.022 114.796C113.19 114.93 113.405 114.997 113.666 114.997ZM116.866 113.154V115.442H116.281V111.639H116.846V112.233H116.895C116.985 112.04 117.12 111.885 117.302 111.768C117.483 111.649 117.718 111.589 118.005 111.589C118.262 111.589 118.488 111.642 118.681 111.748C118.874 111.852 119.024 112.01 119.131 112.223C119.239 112.435 119.292 112.702 119.292 113.026V115.442H118.708V113.065C118.708 112.766 118.63 112.534 118.475 112.367C118.32 112.199 118.107 112.114 117.836 112.114C117.65 112.114 117.483 112.155 117.336 112.236C117.191 112.317 117.076 112.435 116.992 112.59C116.908 112.745 116.866 112.933 116.866 113.154ZM122.539 112.996V113.541H120.321V112.996H122.539ZM124.261 110.371V115.442H123.647V110.371H124.261ZM125.997 113.154V115.442H125.413V111.639H125.978V112.233H126.027C126.116 112.04 126.252 111.885 126.433 111.768C126.615 111.649 126.849 111.589 127.136 111.589C127.394 111.589 127.619 111.642 127.812 111.748C128.006 111.852 128.156 112.01 128.263 112.223C128.37 112.435 128.424 112.702 128.424 113.026V115.442H127.84V113.065C127.84 112.766 127.762 112.534 127.607 112.367C127.452 112.199 127.239 112.114 126.968 112.114C126.782 112.114 126.615 112.155 126.468 112.236C126.323 112.317 126.208 112.435 126.124 112.59C126.04 112.745 125.997 112.933 125.997 113.154ZM131.146 111.639V112.134H129.175V111.639H131.146ZM129.75 110.728H130.334V114.353C130.334 114.518 130.358 114.642 130.406 114.724C130.455 114.805 130.518 114.86 130.594 114.888C130.671 114.914 130.753 114.927 130.839 114.927C130.903 114.927 130.956 114.924 130.998 114.917C131.039 114.909 131.072 114.903 131.097 114.898L131.215 115.423C131.176 115.437 131.121 115.452 131.05 115.467C130.979 115.484 130.889 115.492 130.78 115.492C130.615 115.492 130.453 115.456 130.294 115.385C130.137 115.314 130.007 115.206 129.903 115.061C129.801 114.916 129.75 114.733 129.75 114.511V110.728ZM132.025 115.442V111.639H132.59V112.213H132.629C132.699 112.025 132.824 111.872 133.006 111.755C133.187 111.638 133.392 111.579 133.62 111.579C133.663 111.579 133.716 111.58 133.781 111.582C133.845 111.584 133.894 111.586 133.927 111.589V112.184C133.907 112.179 133.862 112.171 133.791 112.161C133.721 112.15 133.648 112.144 133.57 112.144C133.385 112.144 133.22 112.183 133.075 112.26C132.931 112.336 132.818 112.442 132.733 112.577C132.651 112.711 132.61 112.864 132.61 113.035V115.442H132.025ZM137.017 113.887V111.639H137.601V115.442H137.017V114.799H136.977C136.888 114.992 136.749 115.156 136.561 115.291C136.373 115.425 136.135 115.492 135.848 115.492C135.61 115.492 135.399 115.44 135.214 115.336C135.029 115.23 134.884 115.072 134.778 114.86C134.672 114.648 134.62 114.379 134.62 114.056V111.639H135.204V114.016C135.204 114.293 135.282 114.515 135.437 114.68C135.594 114.845 135.793 114.927 136.036 114.927C136.181 114.927 136.329 114.89 136.479 114.816C136.631 114.742 136.758 114.628 136.861 114.474C136.965 114.321 137.017 114.125 137.017 113.887ZM141.365 112.491L140.84 112.639C140.807 112.552 140.759 112.467 140.694 112.384C140.632 112.3 140.546 112.231 140.437 112.176C140.328 112.122 140.188 112.095 140.018 112.095C139.786 112.095 139.592 112.148 139.436 112.255C139.283 112.361 139.206 112.496 139.206 112.659C139.206 112.804 139.259 112.919 139.365 113.003C139.47 113.087 139.635 113.158 139.86 113.214L140.424 113.352C140.765 113.435 141.018 113.561 141.185 113.731C141.351 113.9 141.435 114.117 141.435 114.383C141.435 114.6 141.372 114.795 141.247 114.967C141.123 115.139 140.949 115.274 140.727 115.373C140.504 115.472 140.245 115.522 139.949 115.522C139.561 115.522 139.24 115.437 138.986 115.269C138.732 115.101 138.571 114.855 138.503 114.531L139.058 114.392C139.11 114.597 139.21 114.751 139.357 114.853C139.506 114.955 139.7 115.007 139.939 115.007C140.212 115.007 140.428 114.949 140.588 114.833C140.75 114.716 140.831 114.576 140.831 114.412C140.831 114.28 140.784 114.17 140.692 114.08C140.599 113.99 140.458 113.922 140.266 113.877L139.632 113.729C139.284 113.646 139.028 113.518 138.864 113.345C138.703 113.17 138.622 112.951 138.622 112.689C138.622 112.474 138.682 112.284 138.803 112.119C138.925 111.954 139.091 111.825 139.3 111.731C139.512 111.636 139.751 111.589 140.018 111.589C140.395 111.589 140.69 111.672 140.905 111.837C141.121 112.002 141.275 112.22 141.365 112.491ZM142.314 115.442V111.639H142.899V115.442H142.314ZM142.612 111.005C142.498 111.005 142.399 110.966 142.317 110.889C142.236 110.811 142.196 110.718 142.196 110.609C142.196 110.5 142.236 110.407 142.317 110.329C142.399 110.251 142.498 110.213 142.612 110.213C142.726 110.213 142.823 110.251 142.904 110.329C142.986 110.407 143.028 110.5 143.028 110.609C143.028 110.718 142.986 110.811 142.904 110.889C142.823 110.966 142.726 111.005 142.612 111.005ZM147.079 111.639L145.673 115.442H145.079L143.672 111.639H144.306L145.356 114.67H145.395L146.445 111.639H147.079ZM149.309 115.522C148.943 115.522 148.627 115.441 148.361 115.279C148.097 115.116 147.893 114.888 147.749 114.596C147.607 114.302 147.536 113.96 147.536 113.57C147.536 113.181 147.607 112.837 147.749 112.54C147.893 112.241 148.093 112.009 148.348 111.842C148.606 111.674 148.906 111.589 149.25 111.589C149.448 111.589 149.643 111.622 149.837 111.688C150.03 111.754 150.206 111.862 150.364 112.01C150.523 112.157 150.649 112.352 150.743 112.595C150.837 112.837 150.884 113.136 150.884 113.491V113.739H147.952V113.234H150.29C150.29 113.019 150.247 112.827 150.161 112.659C150.077 112.491 149.956 112.358 149.799 112.26C149.644 112.163 149.461 112.114 149.25 112.114C149.017 112.114 148.816 112.172 148.646 112.288C148.477 112.402 148.348 112.55 148.257 112.733C148.166 112.917 148.121 113.113 148.121 113.323V113.66C148.121 113.947 148.17 114.19 148.269 114.39C148.37 114.588 148.509 114.739 148.688 114.843C148.866 114.945 149.073 114.997 149.309 114.997C149.463 114.997 149.601 114.975 149.725 114.932C149.851 114.888 149.959 114.822 150.05 114.734C150.14 114.645 150.211 114.534 150.26 114.402L150.825 114.561C150.765 114.752 150.665 114.921 150.525 115.066C150.385 115.21 150.211 115.322 150.005 115.403C149.799 115.482 149.567 115.522 149.309 115.522ZM154.021 115.442H153.378L155.24 110.371H155.874L157.736 115.442H157.092L155.576 111.173H155.537L154.021 115.442ZM154.259 113.461H156.854V114.006H154.259V113.461ZM158.446 116.869V111.639H159.011V112.243H159.08C159.123 112.177 159.183 112.093 159.259 111.991C159.336 111.887 159.447 111.794 159.59 111.713C159.736 111.631 159.932 111.589 160.18 111.589C160.5 111.589 160.782 111.669 161.027 111.83C161.271 111.99 161.462 112.217 161.599 112.511C161.736 112.804 161.804 113.151 161.804 113.551C161.804 113.953 161.736 114.302 161.599 114.598C161.462 114.892 161.272 115.12 161.029 115.281C160.786 115.442 160.507 115.522 160.19 115.522C159.945 115.522 159.75 115.481 159.603 115.4C159.456 115.318 159.343 115.224 159.264 115.12C159.184 115.015 159.123 114.927 159.08 114.858H159.031V116.869H158.446ZM159.021 113.541C159.021 113.828 159.063 114.081 159.147 114.301C159.231 114.519 159.354 114.69 159.516 114.813C159.678 114.936 159.876 114.997 160.11 114.997C160.355 114.997 160.559 114.932 160.722 114.804C160.887 114.673 161.011 114.498 161.093 114.279C161.178 114.057 161.22 113.811 161.22 113.541C161.22 113.273 161.179 113.032 161.096 112.818C161.015 112.601 160.892 112.43 160.727 112.305C160.564 112.178 160.358 112.114 160.11 112.114C159.873 112.114 159.673 112.175 159.511 112.295C159.349 112.414 159.227 112.581 159.145 112.795C159.062 113.008 159.021 113.257 159.021 113.541ZM162.696 116.869V111.639H163.26V112.243H163.33C163.372 112.177 163.432 112.093 163.508 111.991C163.585 111.887 163.696 111.794 163.84 111.713C163.985 111.631 164.181 111.589 164.429 111.589C164.749 111.589 165.032 111.669 165.276 111.83C165.52 111.99 165.711 112.217 165.848 112.511C165.985 112.804 166.053 113.151 166.053 113.551C166.053 113.953 165.985 114.302 165.848 114.598C165.711 114.892 165.521 115.12 165.278 115.281C165.036 115.442 164.756 115.522 164.439 115.522C164.195 115.522 163.999 115.481 163.852 115.4C163.705 115.318 163.592 115.224 163.513 115.12C163.434 115.015 163.372 114.927 163.33 114.858H163.28V116.869H162.696ZM163.27 113.541C163.27 113.828 163.312 114.081 163.396 114.301C163.481 114.519 163.604 114.69 163.765 114.813C163.927 114.936 164.125 114.997 164.36 114.997C164.604 114.997 164.808 114.932 164.971 114.804C165.136 114.673 165.26 114.498 165.343 114.279C165.427 114.057 165.469 113.811 165.469 113.541C165.469 113.273 165.428 113.032 165.345 112.818C165.264 112.601 165.141 112.43 164.976 112.305C164.813 112.178 164.607 112.114 164.36 112.114C164.122 112.114 163.922 112.175 163.76 112.295C163.599 112.414 163.476 112.581 163.394 112.795C163.311 113.008 163.27 113.257 163.27 113.541ZM167.529 110.371V115.442H166.945V110.371H167.529ZM168.6 115.442V111.639H169.184V115.442H168.6ZM168.897 111.005C168.783 111.005 168.685 110.966 168.602 110.889C168.521 110.811 168.481 110.718 168.481 110.609C168.481 110.5 168.521 110.407 168.602 110.329C168.685 110.251 168.783 110.213 168.897 110.213C169.011 110.213 169.108 110.251 169.189 110.329C169.271 110.407 169.313 110.5 169.313 110.609C169.313 110.718 169.271 110.811 169.189 110.889C169.108 110.966 169.011 111.005 168.897 111.005ZM171.374 115.532C171.133 115.532 170.914 115.486 170.717 115.395C170.521 115.303 170.365 115.17 170.249 114.997C170.134 114.822 170.076 114.61 170.076 114.363C170.076 114.145 170.119 113.968 170.205 113.833C170.291 113.696 170.405 113.589 170.549 113.511C170.693 113.433 170.851 113.376 171.024 113.338C171.199 113.298 171.375 113.267 171.552 113.243C171.783 113.214 171.97 113.191 172.114 113.177C172.259 113.16 172.365 113.133 172.431 113.095C172.499 113.057 172.532 112.991 172.532 112.897V112.877C172.532 112.633 172.466 112.443 172.332 112.307C172.2 112.172 171.999 112.104 171.73 112.104C171.451 112.104 171.232 112.166 171.074 112.288C170.915 112.41 170.804 112.54 170.74 112.679L170.185 112.481C170.284 112.25 170.416 112.07 170.581 111.941C170.748 111.811 170.929 111.72 171.126 111.669C171.324 111.616 171.519 111.589 171.71 111.589C171.832 111.589 171.973 111.604 172.131 111.634C172.291 111.662 172.446 111.721 172.594 111.81C172.745 111.899 172.869 112.033 172.968 112.213C173.067 112.393 173.117 112.634 173.117 112.936V115.442H172.532V114.927H172.503C172.463 115.01 172.397 115.098 172.305 115.192C172.212 115.286 172.089 115.366 171.936 115.432C171.782 115.499 171.595 115.532 171.374 115.532ZM171.463 115.007C171.694 115.007 171.889 114.961 172.047 114.87C172.207 114.78 172.328 114.662 172.409 114.519C172.491 114.375 172.532 114.224 172.532 114.066V113.531C172.508 113.56 172.453 113.588 172.369 113.612C172.286 113.636 172.191 113.656 172.082 113.674C171.974 113.691 171.87 113.706 171.767 113.719C171.667 113.73 171.585 113.74 171.522 113.749C171.37 113.768 171.228 113.801 171.096 113.845C170.966 113.888 170.86 113.953 170.779 114.041C170.7 114.127 170.66 114.244 170.66 114.392C170.66 114.596 170.735 114.749 170.886 114.853C171.038 114.955 171.23 115.007 171.463 115.007ZM174.768 113.154V115.442H174.183V111.639H174.748V112.233H174.798C174.887 112.04 175.022 111.885 175.204 111.768C175.385 111.649 175.62 111.589 175.907 111.589C176.164 111.589 176.39 111.642 176.583 111.748C176.776 111.852 176.926 112.01 177.034 112.223C177.141 112.435 177.194 112.702 177.194 113.026V115.442H176.61V113.065C176.61 112.766 176.533 112.534 176.377 112.367C176.222 112.199 176.009 112.114 175.738 112.114C175.552 112.114 175.385 112.155 175.238 112.236C175.093 112.317 174.978 112.435 174.894 112.59C174.81 112.745 174.768 112.933 174.768 113.154ZM179.808 115.522C179.451 115.522 179.144 115.437 178.886 115.269C178.629 115.101 178.431 114.869 178.292 114.573C178.153 114.278 178.084 113.94 178.084 113.56C178.084 113.174 178.155 112.833 178.297 112.538C178.441 112.241 178.64 112.009 178.896 111.842C179.154 111.674 179.454 111.589 179.798 111.589C180.065 111.589 180.306 111.639 180.521 111.738C180.735 111.837 180.911 111.976 181.048 112.154C181.185 112.332 181.27 112.54 181.303 112.778H180.719C180.674 112.605 180.575 112.451 180.422 112.317C180.27 112.182 180.065 112.114 179.808 112.114C179.58 112.114 179.38 112.174 179.208 112.293C179.038 112.41 178.905 112.576 178.81 112.79C178.716 113.003 178.668 113.253 178.668 113.541C178.668 113.834 178.715 114.09 178.807 114.308C178.901 114.526 179.033 114.695 179.203 114.816C179.375 114.936 179.576 114.997 179.808 114.997C179.959 114.997 180.097 114.97 180.221 114.917C180.345 114.865 180.45 114.789 180.536 114.69C180.621 114.591 180.682 114.472 180.719 114.333H181.303C181.27 114.558 181.188 114.76 181.058 114.94C180.929 115.118 180.758 115.26 180.545 115.366C180.334 115.47 180.088 115.522 179.808 115.522ZM183.752 115.522C183.386 115.522 183.07 115.441 182.804 115.279C182.54 115.116 182.336 114.888 182.192 114.596C182.05 114.302 181.979 113.96 181.979 113.57C181.979 113.181 182.05 112.837 182.192 112.54C182.336 112.241 182.535 112.009 182.791 111.842C183.049 111.674 183.349 111.589 183.693 111.589C183.891 111.589 184.086 111.622 184.28 111.688C184.473 111.754 184.649 111.862 184.807 112.01C184.965 112.157 185.092 112.352 185.186 112.595C185.28 112.837 185.327 113.136 185.327 113.491V113.739H182.395V113.234H184.733C184.733 113.019 184.69 112.827 184.604 112.659C184.52 112.491 184.399 112.358 184.242 112.26C184.087 112.163 183.904 112.114 183.693 112.114C183.46 112.114 183.259 112.172 183.089 112.288C182.92 112.402 182.791 112.55 182.7 112.733C182.609 112.917 182.564 113.113 182.564 113.323V113.66C182.564 113.947 182.613 114.19 182.712 114.39C182.813 114.588 182.952 114.739 183.131 114.843C183.309 114.945 183.516 114.997 183.752 114.997C183.906 114.997 184.044 114.975 184.168 114.932C184.294 114.888 184.402 114.822 184.493 114.734C184.583 114.645 184.653 114.534 184.703 114.402L185.268 114.561C185.208 114.752 185.108 114.921 184.968 115.066C184.828 115.21 184.654 115.322 184.448 115.403C184.242 115.482 184.01 115.522 183.752 115.522ZM188.395 112.996V113.541H186.176V112.996H188.395ZM189.503 115.442V110.371H190.117V114.898H192.474V115.442H189.503ZM194.94 115.522C194.574 115.522 194.258 115.441 193.992 115.279C193.728 115.116 193.524 114.888 193.38 114.596C193.238 114.302 193.167 113.96 193.167 113.57C193.167 113.181 193.238 112.837 193.38 112.54C193.524 112.241 193.724 112.009 193.98 111.842C194.237 111.674 194.538 111.589 194.881 111.589C195.079 111.589 195.275 111.622 195.468 111.688C195.661 111.754 195.837 111.862 195.995 112.01C196.154 112.157 196.28 112.352 196.374 112.595C196.468 112.837 196.515 113.136 196.515 113.491V113.739H193.583V113.234H195.921C195.921 113.019 195.878 112.827 195.792 112.659C195.708 112.491 195.587 112.358 195.431 112.26C195.275 112.163 195.092 112.114 194.881 112.114C194.648 112.114 194.447 112.172 194.277 112.288C194.108 112.402 193.979 112.55 193.888 112.733C193.797 112.917 193.752 113.113 193.752 113.323V113.66C193.752 113.947 193.801 114.19 193.9 114.39C194.001 114.588 194.141 114.739 194.319 114.843C194.497 114.945 194.704 114.997 194.94 114.997C195.094 114.997 195.233 114.975 195.356 114.932C195.482 114.888 195.59 114.822 195.681 114.734C195.772 114.645 195.842 114.534 195.891 114.402L196.456 114.561C196.396 114.752 196.296 114.921 196.156 115.066C196.016 115.21 195.843 115.322 195.636 115.403C195.43 115.482 195.198 115.522 194.94 115.522ZM200.399 111.639L198.992 115.442H198.398L196.991 111.639H197.625L198.675 114.67H198.715L199.765 111.639H200.399ZM202.628 115.522C202.262 115.522 201.946 115.441 201.68 115.279C201.416 115.116 201.212 114.888 201.068 114.596C200.926 114.302 200.855 113.96 200.855 113.57C200.855 113.181 200.926 112.837 201.068 112.54C201.212 112.241 201.412 112.009 201.668 111.842C201.925 111.674 202.226 111.589 202.569 111.589C202.767 111.589 202.963 111.622 203.156 111.688C203.349 111.754 203.525 111.862 203.683 112.01C203.842 112.157 203.968 112.352 204.062 112.595C204.156 112.837 204.203 113.136 204.203 113.491V113.739H201.271V113.234H203.609C203.609 113.019 203.566 112.827 203.48 112.659C203.396 112.491 203.275 112.358 203.119 112.26C202.963 112.163 202.78 112.114 202.569 112.114C202.336 112.114 202.135 112.172 201.965 112.288C201.796 112.402 201.667 112.55 201.576 112.733C201.485 112.917 201.44 113.113 201.44 113.323V113.66C201.44 113.947 201.489 114.19 201.588 114.39C201.689 114.588 201.829 114.739 202.007 114.843C202.185 114.945 202.392 114.997 202.628 114.997C202.782 114.997 202.921 114.975 203.044 114.932C203.17 114.888 203.278 114.822 203.369 114.734C203.46 114.645 203.53 114.534 203.579 114.402L204.144 114.561C204.084 114.752 203.985 114.921 203.844 115.066C203.704 115.21 203.531 115.322 203.324 115.403C203.118 115.482 202.886 115.522 202.628 115.522ZM205.677 110.371V115.442H205.092V110.371H205.677ZM208.787 115.442V110.371H209.401V114.898H211.759V115.442H208.787ZM214.176 115.522C213.832 115.522 213.531 115.44 213.272 115.276C213.014 115.113 212.813 114.884 212.668 114.591C212.524 114.297 212.452 113.953 212.452 113.56C212.452 113.164 212.524 112.818 212.668 112.523C212.813 112.227 213.014 111.998 213.272 111.835C213.531 111.671 213.832 111.589 214.176 111.589C214.519 111.589 214.819 111.671 215.077 111.835C215.336 111.998 215.538 112.227 215.681 112.523C215.826 112.818 215.899 113.164 215.899 113.56C215.899 113.953 215.826 114.297 215.681 114.591C215.538 114.884 215.336 115.113 215.077 115.276C214.819 115.44 214.519 115.522 214.176 115.522ZM214.176 114.997C214.436 114.997 214.651 114.93 214.819 114.796C214.988 114.662 215.112 114.487 215.193 114.269C215.274 114.051 215.315 113.815 215.315 113.56C215.315 113.306 215.274 113.069 215.193 112.85C215.112 112.63 214.988 112.453 214.819 112.317C214.651 112.182 214.436 112.114 214.176 112.114C213.915 112.114 213.7 112.182 213.532 112.317C213.363 112.453 213.239 112.63 213.158 112.85C213.077 113.069 213.037 113.306 213.037 113.56C213.037 113.815 213.077 114.051 213.158 114.269C213.239 114.487 213.363 114.662 213.532 114.796C213.7 114.93 213.915 114.997 214.176 114.997ZM217.91 115.532C217.669 115.532 217.451 115.486 217.254 115.395C217.058 115.303 216.902 115.17 216.786 114.997C216.671 114.822 216.613 114.61 216.613 114.363C216.613 114.145 216.656 113.968 216.742 113.833C216.827 113.696 216.942 113.589 217.086 113.511C217.229 113.433 217.388 113.376 217.561 113.338C217.736 113.298 217.912 113.267 218.089 113.243C218.32 113.214 218.507 113.191 218.651 113.177C218.796 113.16 218.902 113.133 218.968 113.095C219.035 113.057 219.069 112.991 219.069 112.897V112.877C219.069 112.633 219.002 112.443 218.869 112.307C218.737 112.172 218.536 112.104 218.267 112.104C217.988 112.104 217.769 112.166 217.611 112.288C217.452 112.41 217.341 112.54 217.276 112.679L216.722 112.481C216.821 112.25 216.953 112.07 217.118 111.941C217.285 111.811 217.466 111.72 217.663 111.669C217.861 111.616 218.056 111.589 218.247 111.589C218.369 111.589 218.51 111.604 218.668 111.634C218.828 111.662 218.983 111.721 219.131 111.81C219.281 111.899 219.406 112.033 219.505 112.213C219.604 112.393 219.654 112.634 219.654 112.936V115.442H219.069V114.927H219.04C219 115.01 218.934 115.098 218.841 115.192C218.749 115.286 218.626 115.366 218.472 115.432C218.319 115.499 218.132 115.532 217.91 115.532ZM218 115.007C218.231 115.007 218.425 114.961 218.584 114.87C218.744 114.78 218.865 114.662 218.945 114.519C219.028 114.375 219.069 114.224 219.069 114.066V113.531C219.044 113.56 218.99 113.588 218.906 113.612C218.823 113.636 218.728 113.656 218.619 113.674C218.511 113.691 218.406 113.706 218.304 113.719C218.203 113.73 218.122 113.74 218.059 113.749C217.907 113.768 217.765 113.801 217.633 113.845C217.503 113.888 217.397 113.953 217.316 114.041C217.237 114.127 217.197 114.244 217.197 114.392C217.197 114.596 217.272 114.749 217.423 114.853C217.574 114.955 217.767 115.007 218 115.007ZM222.156 115.522C221.84 115.522 221.56 115.442 221.317 115.281C221.074 115.12 220.885 114.892 220.747 114.598C220.61 114.302 220.542 113.953 220.542 113.551C220.542 113.151 220.61 112.804 220.747 112.511C220.885 112.217 221.075 111.99 221.32 111.83C221.564 111.669 221.846 111.589 222.166 111.589C222.414 111.589 222.61 111.631 222.753 111.713C222.899 111.794 223.009 111.887 223.085 111.991C223.163 112.093 223.223 112.177 223.266 112.243H223.315V110.371H223.9V115.442H223.335V114.858H223.266C223.223 114.927 223.162 115.015 223.083 115.12C223.003 115.224 222.89 115.318 222.743 115.4C222.596 115.481 222.401 115.522 222.156 115.522ZM222.236 114.997C222.47 114.997 222.668 114.936 222.83 114.813C222.992 114.69 223.115 114.519 223.199 114.301C223.283 114.081 223.325 113.828 223.325 113.541C223.325 113.257 223.284 113.008 223.201 112.795C223.119 112.581 222.997 112.414 222.835 112.295C222.673 112.175 222.473 112.114 222.236 112.114C221.988 112.114 221.782 112.178 221.617 112.305C221.453 112.43 221.33 112.601 221.248 112.818C221.167 113.032 221.126 113.273 221.126 113.541C221.126 113.811 221.168 114.057 221.25 114.279C221.334 114.498 221.458 114.673 221.622 114.804C221.787 114.932 221.991 114.997 222.236 114.997ZM227.3 115.442H226.656L228.518 110.371H229.152L231.014 115.442H230.37L228.855 111.173H228.815L227.3 115.442ZM227.537 113.461H230.132V114.006H227.537V113.461ZM232.309 113.154V115.442H231.725V111.639H232.289V112.233H232.339C232.428 112.04 232.563 111.885 232.745 111.768C232.926 111.649 233.161 111.589 233.448 111.589C233.706 111.589 233.931 111.642 234.124 111.748C234.317 111.852 234.467 112.01 234.575 112.223C234.682 112.435 234.736 112.702 234.736 113.026V115.442H234.151V113.065C234.151 112.766 234.074 112.534 233.919 112.367C233.763 112.199 233.55 112.114 233.28 112.114C233.093 112.114 232.926 112.155 232.779 112.236C232.634 112.317 232.519 112.435 232.435 112.59C232.351 112.745 232.309 112.933 232.309 113.154ZM236.923 115.532C236.682 115.532 236.463 115.486 236.267 115.395C236.07 115.303 235.914 115.17 235.799 114.997C235.683 114.822 235.625 114.61 235.625 114.363C235.625 114.145 235.668 113.968 235.754 113.833C235.84 113.696 235.955 113.589 236.098 113.511C236.242 113.433 236.4 113.376 236.574 113.338C236.749 113.298 236.924 113.267 237.101 113.243C237.332 113.214 237.52 113.191 237.663 113.177C237.808 113.16 237.914 113.133 237.98 113.095C238.048 113.057 238.082 112.991 238.082 112.897V112.877C238.082 112.633 238.015 112.443 237.881 112.307C237.749 112.172 237.548 112.104 237.279 112.104C237 112.104 236.782 112.166 236.623 112.288C236.465 112.41 236.353 112.54 236.289 112.679L235.734 112.481C235.833 112.25 235.965 112.07 236.13 111.941C236.297 111.811 236.479 111.72 236.675 111.669C236.873 111.616 237.068 111.589 237.26 111.589C237.382 111.589 237.522 111.604 237.68 111.634C237.841 111.662 237.995 111.721 238.144 111.81C238.294 111.899 238.418 112.033 238.517 112.213C238.617 112.393 238.666 112.634 238.666 112.936V115.442H238.082V114.927H238.052C238.012 115.01 237.946 115.098 237.854 115.192C237.761 115.286 237.638 115.366 237.485 115.432C237.331 115.499 237.144 115.532 236.923 115.532ZM237.012 115.007C237.243 115.007 237.438 114.961 237.596 114.87C237.756 114.78 237.877 114.662 237.958 114.519C238.04 114.375 238.082 114.224 238.082 114.066V113.531C238.057 113.56 238.002 113.588 237.918 113.612C237.836 113.636 237.74 113.656 237.631 113.674C237.524 113.691 237.419 113.706 237.316 113.719C237.216 113.73 237.134 113.74 237.071 113.749C236.919 113.768 236.778 113.801 236.645 113.845C236.515 113.888 236.409 113.953 236.328 114.041C236.249 114.127 236.21 114.244 236.21 114.392C236.21 114.596 236.285 114.749 236.435 114.853C236.587 114.955 236.779 115.007 237.012 115.007ZM240.317 110.371V115.442H239.733V110.371H240.317ZM241.764 116.869C241.665 116.869 241.576 116.86 241.499 116.844C241.421 116.829 241.368 116.814 241.338 116.799L241.486 116.284C241.628 116.321 241.754 116.334 241.863 116.324C241.972 116.314 242.068 116.265 242.153 116.178C242.238 116.092 242.317 115.952 242.388 115.759L242.497 115.462L241.09 111.639H241.724L242.774 114.67H242.814L243.864 111.639H244.498L242.883 115.997C242.81 116.194 242.72 116.356 242.613 116.485C242.506 116.615 242.381 116.712 242.239 116.775C242.099 116.837 241.94 116.869 241.764 116.869ZM247.963 112.491L247.438 112.639C247.405 112.552 247.356 112.467 247.292 112.384C247.229 112.3 247.143 112.231 247.034 112.176C246.925 112.122 246.786 112.095 246.616 112.095C246.383 112.095 246.189 112.148 246.034 112.255C245.881 112.361 245.804 112.496 245.804 112.659C245.804 112.804 245.857 112.919 245.962 113.003C246.068 113.087 246.233 113.158 246.457 113.214L247.022 113.352C247.362 113.435 247.616 113.561 247.782 113.731C247.949 113.9 248.032 114.117 248.032 114.383C248.032 114.6 247.97 114.795 247.844 114.967C247.72 115.139 247.547 115.274 247.324 115.373C247.101 115.472 246.842 115.522 246.547 115.522C246.159 115.522 245.838 115.437 245.583 115.269C245.329 115.101 245.168 114.855 245.101 114.531L245.655 114.392C245.708 114.597 245.808 114.751 245.955 114.853C246.103 114.955 246.297 115.007 246.537 115.007C246.809 115.007 247.025 114.949 247.185 114.833C247.347 114.716 247.428 114.576 247.428 114.412C247.428 114.28 247.382 114.17 247.289 114.08C247.197 113.99 247.055 113.922 246.864 113.877L246.23 113.729C245.881 113.646 245.625 113.518 245.462 113.345C245.3 113.17 245.219 112.951 245.219 112.689C245.219 112.474 245.28 112.284 245.4 112.119C245.522 111.954 245.688 111.825 245.898 111.731C246.109 111.636 246.349 111.589 246.616 111.589C246.992 111.589 247.288 111.672 247.502 111.837C247.719 112.002 247.872 112.22 247.963 112.491ZM248.912 115.442V111.639H249.496V115.442H248.912ZM249.209 111.005C249.095 111.005 248.997 110.966 248.914 110.889C248.834 110.811 248.793 110.718 248.793 110.609C248.793 110.5 248.834 110.407 248.914 110.329C248.997 110.251 249.095 110.213 249.209 110.213C249.323 110.213 249.42 110.251 249.501 110.329C249.584 110.407 249.625 110.5 249.625 110.609C249.625 110.718 249.584 110.811 249.501 110.889C249.42 110.966 249.323 111.005 249.209 111.005ZM253.261 112.491L252.736 112.639C252.703 112.552 252.654 112.467 252.59 112.384C252.527 112.3 252.441 112.231 252.332 112.176C252.223 112.122 252.084 112.095 251.914 112.095C251.681 112.095 251.487 112.148 251.332 112.255C251.178 112.361 251.102 112.496 251.102 112.659C251.102 112.804 251.154 112.919 251.26 113.003C251.366 113.087 251.531 113.158 251.755 113.214L252.32 113.352C252.66 113.435 252.913 113.561 253.08 113.731C253.247 113.9 253.33 114.117 253.33 114.383C253.33 114.6 253.267 114.795 253.142 114.967C253.018 115.139 252.845 115.274 252.622 115.373C252.399 115.472 252.14 115.522 251.844 115.522C251.457 115.522 251.135 115.437 250.881 115.269C250.627 115.101 250.466 114.855 250.398 114.531L250.953 114.392C251.006 114.597 251.106 114.751 251.253 114.853C251.401 114.955 251.595 115.007 251.835 115.007C252.107 115.007 252.323 114.949 252.483 114.833C252.645 114.716 252.726 114.576 252.726 114.412C252.726 114.28 252.68 114.17 252.587 114.08C252.495 113.99 252.353 113.922 252.161 113.877L251.528 113.729C251.179 113.646 250.923 113.518 250.76 113.345C250.598 113.17 250.517 112.951 250.517 112.689C250.517 112.474 250.577 112.284 250.698 112.119C250.82 111.954 250.986 111.825 251.196 111.731C251.407 111.636 251.646 111.589 251.914 111.589C252.29 111.589 252.586 111.672 252.8 111.837C253.017 112.002 253.17 112.22 253.261 112.491Z" fill="white"/>
</g>
<defs>
<clipPath id="clip0_424_1410">
<rect width="328" height="135.12" fill="white"/>
</clipPath>
</defs>
</svg>
